<svg version="1.1" viewBox="0.0 0.0 960.0 540.0" fill="none" stroke="none" stroke-linecap="square" stroke-miterlimit="10" xmlns:xlink="http://www.w3.org/1999/xlink" xmlns="http://www.w3.org/2000/svg"><clipPath id="g319f9c902f6_0_5.0"><path d="m0 0l960.0 0l0 540.0l-960.0 0l0 -540.0z" clip-rule="nonzero"/></clipPath><g clip-path="url(#g319f9c902f6_0_5.0)"><path fill="#000000" fill-opacity="0.0" d="m0 0l960.0 0l0 540.0l-960.0 0z" fill-rule="evenodd"/><path fill="#000000" fill-opacity="0.0" d="m0 188.3937l960.0 0l0 163.21259l-960.0 0z" fill-rule="evenodd"/><path fill="#595959" d="m67.84903 317.65936q-2.9375 0.59375 -6.96875 -0.796875q-4.03125 -1.390625 -6.375 -3.296875q2.9375 0.28125 6.96875 -0.953125q4.03125 -1.25 6.375 -3.15625q-1.609375 -1.609375 -4.765625 -3.4375q-3.15625 -1.84375 -5.5 -1.84375q1.171875 -1.609375 3.875 -3.078125q2.71875 -1.46875 4.921875 -1.90625q-3.375 0.140625 -7.40625 -0.875q-4.03125 -1.03125 -6.53125 -2.9375q3.375 0.875 8.0 -0.21875q4.625 -1.109375 7.40625 -3.15625q-1.765625 -2.046875 -5.5 -3.8125q-3.734375 -1.765625 -6.375 -1.46875q1.90625 -1.90625 5.5625 -3.59375q3.671875 -1.6875 6.3125 -1.6875q-2.9375 -1.609375 -7.40625 -1.96875q-4.46875 -0.375 -7.703125 0.5q2.796875 -1.90625 7.328125 -2.1875q4.546875 -0.296875 7.78125 0.71875q-2.046875 -2.1875 -6.15625 -3.796875q-4.109375 -1.625 -7.046875 -1.46875q2.203125 -2.0625 6.234375 -3.8125q4.03125 -1.765625 6.96875 -1.46875q-1.609375 -1.625 -4.703125 -2.71875q-3.078125 -1.09375 -5.265625 -0.8125q1.609375 -1.609375 4.6875 -2.703125q3.078125 -1.109375 5.28125 -0.8125q-2.78125 -1.765625 -7.109375 -2.484375q-4.328125 -0.734375 -7.5625 0.140625q1.46875 -1.03125 3.59375 -1.6875q2.125 -0.65625 4.328125 -0.95310974q-4.84375 -1.03125 -7.765625 -3.234375q3.21875 0.734375 7.546875 -0.359375q4.328125 -1.09375 6.96875 -3.15625q-1.90625 0.15625 -4.703125 -0.71875q-2.78125 -0.890625 -4.09375 -2.359375q2.046875 0 4.6875 -0.953125q2.640625 -0.953125 4.109375 -2.265625q-2.34375 0 -5.578125 -0.953125q-3.21875 -0.953125 -4.828125 -2.578125q2.34375 0.453125 5.5625 -0.71875q3.234375 -1.1875 4.84375 -2.796875q-3.375 0.59375 -8.0 -0.875q-4.609375 -1.46875 -7.109375 -3.8125q3.375 0.4375 7.984375 -0.953125q4.625 -1.390625 7.125 -3.75q-1.609375 -2.78125 -5.203125 -4.90625q-3.59375 -2.125 -6.671875 -2.859375q3.21875 -0.140625 7.171875 1.109375q3.96875 1.234375 6.3125 3.296875q-0.875 -3.53125 0.296875 -8.359375q1.171875 -4.84375 3.515625 -7.484375q-0.734375 3.515625 0.4375 8.28125q1.171875 4.765625 3.375 7.5625q-0.734375 -3.375 0.140625 -7.921875q0.890625 -4.546875 2.796875 -7.484375q-1.03125 3.375 0 7.921875q1.03125 4.546875 2.9375 7.484375q0 -2.359375 1.828125 -5.796875q1.828125 -3.453125 3.734375 -4.921875q0 2.359375 1.828125 5.8125q1.84375 3.4375 3.75 4.90625q1.90625 -2.203125 2.78125 -6.09375q0.890625 -3.890625 0.15625 -6.671875q1.90625 2.203125 2.703125 6.09375q0.8125 3.875 0.21875 6.671875q2.0625 -2.359375 2.9375 -6.53125q0.890625 -4.1875 0.296875 -7.265625q1.46875 1.765625 2.34375 4.78125q0.875 3.0 1.03125 5.921875q0.296875 -1.90625 0.953125 -3.578125q0.65625 -1.6875 1.53125 -2.875q-0.28125 2.203125 0.515625 5.0q0.8125 2.78125 2.125 4.546875q-0.140625 -1.90625 0.59375 -4.625q0.734375 -2.71875 2.046875 -4.1875q-0.4375 1.90625 0.359375 4.703125q0.8125 2.78125 2.28125 4.109375q-1.015625 -3.671875 -0.0625 -8.65625q0.953125 -4.984375 3.0 -8.21875q-1.03125 3.671875 0 8.65625q1.03125 4.984375 2.9375 8.21875q1.3125 -1.625 2.046875 -4.40625q0.734375 -2.78125 0.59375 -4.84375q1.171875 1.328125 1.828125 3.53125q0.65625 2.1875 0.8125 4.25q0.140625 -2.9375 1.3125 -6.234375q1.171875 -3.296875 2.78125 -5.203125q-0.140625 2.921875 1.109375 6.8125q1.25 3.890625 3.0 6.09375q2.203125 -0.296875 4.984375 -2.421875q2.796875 -2.125 3.96875 -4.03125q0.875 2.1875 0.21875 5.5625q-0.65625 3.375 -1.6875 5.421875q3.515625 -0.28125 8.359375 0.96875q4.84375 1.234375 7.484375 3.734375q-3.53125 -0.4375 -8.375 0.953125q-4.828125 1.390625 -7.46875 3.734375q3.671875 -0.734375 8.71875 0.671875q5.0625 1.390625 8.0 3.734375q-3.671875 -0.890625 -8.8125 0.515625q-5.125 1.390625 -7.90625 3.875q-1.171875 2.0625 -1.6875 5.359375q-0.515625 3.296875 0.078125 5.4999847q-1.765625 -1.1718597 -3.453125 -3.7343597q-1.6875 -2.578125 -2.265625 -4.765625q0.578125 2.484375 -0.078125 5.71875q-0.65625 3.2187347 -2.125 5.2656097q0.734375 -2.625 0.0625 -6.0781097q-0.65625 -3.453125 -2.125 -5.640625q-0.140625 1.453125 -1.09375 3.4375q-0.953125 1.984375 -2.125 3.59375q1.609375 1.6093597 3.078125 4.6249847q1.46875 3.0 1.3125 5.0625q1.765625 -0.59375 3.75 -2.421875q1.984375 -1.84375 2.703125 -3.453125q0.890625 1.46875 1.25 4.265625q0.375 2.78125 -0.21875 4.390625q1.90625 1.90625 5.5625 3.234375q3.671875 1.3125 6.3125 0.875q-2.046875 1.75 -5.640625 3.078125q-3.59375 1.3125 -6.234375 1.03125q1.609375 1.75 4.46875 3.0q2.859375 1.25 6.015625 1.90625q3.15625 0.65625 5.5 0.515625q-2.484375 2.640625 -7.484375 4.25q-4.984375 1.609375 -8.5 1.3125q0.875 2.5 0 6.46875q-0.875 3.953125 -2.34375 6.296875q-0.296875 -2.640625 -2.71875 -5.859375q-2.421875 -3.234375 -4.765625 -4.703125q-1.75 1.46875 -3.65625 4.84375q-1.90625 3.375 -1.765625 5.71875q-1.90625 -1.46875 -3.75 -4.84375q-1.828125 -3.375 -1.828125 -5.71875q-1.609375 2.9375 -2.203125 7.1875q-0.578125 4.25 0.15625 7.484375q-1.609375 -2.9375 -2.28125 -7.1875q-0.65625 -4.25 0.234375 -7.484375q-1.1875 2.0625 -1.78125 5.140625q-0.578125 3.078125 -0.28125 5.71875l0 0l0 0q0.15625 1.03125 0.296875 1.90625q-0.4375 -0.875 -0.875 -2.0625q-1.765625 -0.4375 -3.96875 -0.28125q-0.296875 2.921875 0.15625 5.28125q-1.328125 -2.203125 -2.203125 -5.140625q-1.765625 0.140625 -3.515625 0.59375q-0.296875 0.578125 -0.59375 1.015625q0 -0.28125 0 -0.734375q-3.375 1.03125 -5.28125 2.640625q2.5 -0.140625 5.859375 0.96875q3.375 1.09375 5.140625 2.84375q-2.5 -0.140625 -5.953125 0.96875q-3.4375 1.09375 -5.046875 2.84375q2.34375 -0.140625 5.640625 1.25q3.3125 1.390625 4.765625 3.15625q-2.34375 0.140625 -5.640625 1.390625q-3.296875 1.25 -4.765625 3.015625q-1.171875 2.484375 -0.875 6.21875q0.296875 3.75 1.3125 6.234375q-2.046875 -1.75 -3.515625 -5.203125q-1.46875 -3.4375 -1.46875 -6.234375q-1.609375 1.171875 -3.15625 4.03125q-1.53125 2.859375 -1.53125 4.921875q-1.46875 -1.328125 -2.9375 -4.109375q-1.46875 -2.78125 -1.765625 -4.84375q-1.3125 1.90625 -1.6875 5.125q-0.359375 3.234375 0.375 5.578125q-1.171875 -1.609375 -1.609375 -4.09375q-0.4375 2.046875 -1.328125 3.375q0.734375 -2.0625 0.21875 -5.078125q-0.515625 -3.0 -1.6875 -4.90625q-2.046875 2.34375 -2.78125 6.453125q-0.734375 4.109375 -0.140625 7.046875q-1.90625 -2.34375 -2.859375 -6.453125q-0.953125 -4.109375 -0.078125 -7.046875q-1.46875 2.796875 -2.125 6.890625q-0.65625 4.109375 0.359375 7.046875q-1.46875 -2.78125 -2.28125 -7.1875q-0.796875 -4.40625 -0.5 -8.953125zm44.0 -70.23436q-0.734375 1.015625 -1.46875 2.484375q0.875 0.4375 1.765625 0.875q-0.59375 -1.90625 -0.296875 -3.359375zm0.875 7.328125q-0.296875 2.0468597 0.796875 4.9062347q1.109375 2.859375 2.4375 4.484375q-0.15625 -1.765625 0.578125 -4.1875q0.734375 -2.421875 1.765625 -4.3281097q0.140625 -1.75 -0.75 -4.25q-0.875 -2.5 -2.1875 -3.953125q-1.3125 1.609375 -1.765625 4.390625q0.890625 0.59375 1.46875 1.328125q-0.734375 -0.15625 -1.46875 -0.296875q0 0.578125 0 0.875q-0.28125 -0.4375 -0.578125 -0.875q-1.765625 -0.15625 -3.8125 0q-0.4375 2.203125 -0.15625 3.6718597q-1.171875 -1.1874847 -2.046875 -3.2343597q-1.90625 0.296875 -3.8125 1.03125q-0.4375 0.578125 -0.875 1.015625q0 -0.4375 -0.15625 -0.71875q-2.484375 0.875 -4.25 2.0468597q1.03125 0.875 2.640625 1.46875q0.59375 -0.59375 1.171875 -1.03125q-0.140625 0.59375 -0.296875 1.46875q1.171875 0.4375 2.359375 0.734375q1.015625 -1.609375 2.046875 -2.5q0 1.328125 0.734375 2.9375q2.046875 0.296875 3.671875 0.140625q1.015625 -3.359375 2.484375 -5.1249847zm8.5 -7.328125q0.296875 1.453125 -0.21875 3.296875q-0.5 1.828125 -1.234375 3.4375q-0.15625 2.2031097 1.09375 5.2187347q1.25 3.0 2.71875 4.765625q1.453125 -1.328125 2.84375 -3.96875q1.40625 -2.640625 1.84375 -4.8437347q-0.734375 0.89060974 -1.46875 1.4687347q-0.4375 -2.0468597 -2.203125 -5.0468597q-1.75 -3.015625 -3.375 -4.328125zm-15.25 0.734375q0 -0.453125 0 -0.15625l0 0.15625zm3.53125 15.98436q0 -1.625 0.578125 -3.671875q-1.171875 0.734375 -2.484375 1.171875q1.015625 1.765625 1.90625 2.5zm-7.484375 0q0 -0.453125 0.140625 -1.03125l-0.578125 0q0.140625 0.578125 0.4375 1.03125zm9.09375 30.796875q-0.59375 0.4375 -1.46875 0.734375q-0.140625 0.578125 -0.140625 1.171875q2.046875 0.875 3.65625 1.90625q-0.875 -2.5 -1.171875 -5.359375q-0.296875 -2.859375 0.4375 -5.0625q-1.75 2.34375 -2.640625 6.3125q0.734375 0.296875 1.328125 0.296875zm-4.984375 -1.625l0 -0.140625q0 0.140625 0 0.140625l0 0zm74.05246 28.890625q-0.734375 3.234375 -4.109375 6.53125q-3.359375 3.296875 -6.296875 4.765625q1.609375 -2.78125 1.75 -7.546875q0.15625 -4.765625 -1.015625 -7.703125q-2.0625 2.203125 -6.09375 3.8125q-4.03125 1.609375 -6.96875 1.328125q2.359375 -1.625 4.265625 -5.578125q1.90625 -3.96875 2.046875 -7.046875q-1.3125 1.328125 -3.734375 2.140625q-2.421875 0.796875 -4.328125 0.5q1.75 -0.4375 3.734375 -1.96875q1.984375 -1.546875 3.015625 -3.15625q-2.796875 1.015625 -6.984375 0.515625q-4.171875 -0.515625 -6.8125 -1.6875q2.796875 -0.734375 6.15625 -3.296875q3.375 -2.578125 4.703125 -5.21875q-2.0625 -0.28125 -5.0 -1.75q-2.921875 -1.46875 -4.234375 -3.078125q2.046875 -0.296875 4.75 -2.203125q2.71875 -1.90625 3.890625 -3.515625q-2.484375 -1.921875 -6.59375 -3.3125q-4.109375 -1.390625 -7.1875 -0.796875q2.34375 -2.0625 6.515625 -3.375q4.1875 -1.328125 7.265625 -0.734375q-1.46875 -1.171875 -4.03125 -1.6875q-2.5625 -0.515625 -4.46875 -0.078125q1.171875 -0.875 3.140625 -1.390625q1.984375 -0.515625 3.75 -0.515625q-2.9375 -0.4375 -6.296875 -1.96875q-3.375 -1.546875 -5.140625 -3.453125q2.9375 -0.140625 6.890625 -1.828125q3.96875 -1.6875 6.15625 -3.75q-1.171875 -1.75 -4.25 -3.359375q-3.078125 -1.625 -5.28125 -1.921875q2.34375 -2.921875 6.75 -4.6874847q-2.9375 0.4375 -6.234375 -0.21875q-3.296875 -0.65625 -5.5 -2.125q3.234375 0.734375 7.40625 0.21875q4.1875 -0.515625 7.109375 -1.984375q0.296875 -1.609375 -0.359375 -3.734375q-0.65625 -2.125 -1.546875 -3.453125q1.46875 0.296875 3.453125 1.546875q1.984375 1.25 2.703125 2.5625q-0.28125 -3.21875 1.171875 -7.625q1.46875 -4.40625 3.828125 -6.75q-0.453125 3.234375 1.015625 7.703125q1.46875 4.46875 3.96875 6.671875q1.75 -1.609375 3.4375 -4.984375q1.6875 -3.375 1.6875 -5.859375q1.90625 1.609375 3.515625 4.984375q1.625 3.375 1.765625 5.859375q1.171875 -1.90625 1.96875 -4.828125q0.8125 -2.9375 0.09375 -5.0q1.453125 1.765625 2.046875 4.703125q0.59375 2.921875 0 5.125q0.734375 -1.46875 2.78125 -2.78125q2.0625 -1.328125 3.671875 -1.609375q-1.03125 1.3125 -1.6875 3.59375q-0.65625 2.265625 -0.515625 3.875q1.328125 1.328125 3.8125 2.4375q2.5 1.09375 4.40625 1.09375q-1.328125 1.171875 -3.828125 2.4218597q-2.484375 1.234375 -4.390625 0.9375q1.765625 1.46875 4.765625 2.421875q3.015625 0.953125 5.359375 0.515625q-1.765625 1.46875 -4.84375 2.359375q-3.078125 0.875 -5.125 0.578125q1.015625 0.140625 2.484375 0.953125q1.46875 0.796875 2.0625 1.6875q-1.03125 0 -2.578125 0.875q-1.53125 0.875 -2.125 1.765625q0.4375 0.875 1.90625 2.421875q1.46875 1.53125 2.34375 1.828125q-0.28125 1.03125 -1.828125 2.5q-1.546875 1.453125 -2.421875 1.890625q0.875 0.734375 2.484375 1.1875q1.625 0.4375 2.796875 0.28125q-1.03125 0.734375 -2.578125 1.109375q-1.53125 0.359375 -2.703125 0.359375q0.875 0.15625 2.265625 0.8125q1.40625 0.65625 1.984375 1.53125q-1.015625 0.15625 -2.34375 0.8125q-1.3125 0.65625 -1.90625 1.390625q1.46875 -0.140625 3.375 0.671875q1.90625 0.796875 2.9375 1.671875q-1.46875 0 -3.375 0.734375q-1.90625 0.734375 -2.9375 1.625q2.640625 -1.03125 6.15625 -0.296875q0.296875 -3.53125 0.4375 -7.34375q0.15625 -3.8125 0.078125 -6.8125q-0.0625 -3.0 -0.515625 -4.328125q-0.4375 0 -0.734375 -0.140625q0.59375 -0.734375 3.234375 -1.984375q2.640625 -1.25 5.34375 -2.34375q2.71875 -1.109375 3.59375 -1.109375q-0.71875 -0.71875 -2.1875 -1.3125q-1.46875 -0.59375 -2.5 -0.4375q0.734375 -0.875 2.203125 -1.390625q1.46875 -0.515625 2.484375 -0.375q-1.453125 -1.03125 -3.8125 -1.984375q-2.34375 -0.953125 -4.09375 -0.65625q1.171875 -1.3125 3.65625 -1.96875q2.5 -0.671875 4.25 -0.515625q-1.453125 -0.4375 -3.515625 -2.2031097q-2.046875 -1.765625 -2.78125 -3.234375q1.609375 0 4.03125 -1.015625q2.421875 -1.03125 3.453125 -2.203125q-0.296875 -1.90625 0.28125 -4.6875q0.59375 -2.796875 1.90625 -4.40625q-0.140625 2.046875 0.8125 4.6875q0.953125 2.640625 2.421875 4.109375q-0.296875 -2.34375 0.875 -5.5625q1.171875 -3.234375 2.78125 -4.84375q-0.28125 2.34375 0.890625 5.578125q1.171875 3.21875 2.9375 4.828125q-0.296875 -1.609375 0.140625 -3.734375q0.4375 -2.125 1.3125 -3.453125q-0.4375 1.609375 0.078125 3.75q0.515625 2.125 1.390625 3.4375q1.609375 -2.640625 1.90625 -6.734375q0.296875 -4.109375 -0.4375 -7.203125q1.46875 2.796875 1.828125 6.828125q0.375 4.03125 -0.359375 7.109375q0.296875 -1.3125 1.828125 -3.4375q1.546875 -2.140625 2.71875 -2.71875q0.4375 1.3125 1.90625 3.453125q1.46875 2.125 2.78125 2.703125q0.890625 -1.03125 2.796875 -1.6875q1.90625 -0.65625 3.21875 -0.65625q-0.875 0.875 -1.609375 2.78125q-0.734375 1.90625 -0.734375 3.234375q1.609375 0 4.03125 1.25q2.421875 1.234375 3.453125 2.5625q-1.625 0.140625 -4.046875 1.3124847q-2.40625 1.171875 -3.4375 2.5q2.203125 1.46875 5.71875 1.765625q3.515625 0.28125 6.15625 -0.296875q-2.203125 1.46875 -5.71875 1.765625q-3.515625 0.28125 -6.15625 -0.296875q1.171875 1.90625 4.46875 3.671875q3.296875 1.75 5.5 1.75q-1.171875 1.90625 -4.46875 3.671875q-3.296875 1.75 -5.5 1.90625q1.609375 1.90625 5.125 3.21875q3.53125 1.3125 6.015625 1.171875q-1.75 1.765625 -5.203125 3.09375q-3.453125 1.3125 -5.9375 1.3125q2.484375 1.75 6.515625 2.265625q4.046875 0.515625 6.96875 -0.21875q-2.640625 1.609375 -6.59375 2.28125q-3.953125 0.65625 -6.890625 -0.234375q2.34375 1.765625 6.375 2.875q4.03125 1.09375 6.96875 0.359375q-1.46875 1.3125 -3.8125 2.125q-2.34375 0.8125 -4.6875 1.09375q3.375 0.296875 6.953125 0.96875q3.59375 0.65625 4.625 1.390625q-0.875 -0.296875 -3.234375 -0.21875q-2.34375 0.0625 -5.125 0.515625q-2.78125 0.4375 -5.0625 0.953125q-2.265625 0.5 -3.0 1.09375q3.21875 -0.296875 7.765625 1.25q4.546875 1.53125 6.75 3.875q-3.21875 -0.4375 -7.765625 1.25q-4.546875 1.6875 -6.75 4.03125q2.34375 0.15625 5.71875 1.921875q3.375 1.75 4.6875 3.65625q-2.34375 0.296875 -5.640625 1.984375q-3.296875 1.6875 -4.765625 3.59375q-1.46875 2.484375 -1.625 6.734375q-0.140625 4.265625 1.1875 6.890625q-2.640625 -1.3125 -5.0 -4.765625q-2.34375 -3.4375 -2.921875 -6.21875q0.578125 2.484375 0.0625 5.859375q-0.5 3.375 -2.109375 5.28125q0.578125 -2.5 -0.078125 -5.796875q-0.65625 -3.296875 -1.984375 -5.5q0.296875 1.03125 -0.21875 4.328125q-0.515625 3.296875 -1.390625 6.515625q-0.875 3.234375 -1.46875 4.125q0.140625 -1.03125 -0.375 -4.34375q-0.5 -3.296875 -1.3125 -6.53125q-0.8125 -3.21875 -1.53125 -4.09375q-2.359375 2.0625 -4.046875 6.15625q-1.6875 4.109375 -1.6875 7.1875q-1.453125 -1.3125 -2.5625 -3.515625q-1.09375 -2.203125 -1.828125 -4.6875q-1.328125 -2.5 -4.1875 -4.84375q-2.859375 -2.34375 -5.34375 -3.375q0.734375 2.203125 0.28125 6.015625q-0.4375 3.8125 -1.75 5.71875q-1.03125 -2.046875 -3.890625 -4.546875q-2.859375 -2.5 -5.0625 -3.234375q0.296875 1.90625 -0.734375 4.6875q-1.015625 2.796875 -2.34375 4.265625q-0.140625 -2.046875 -2.265625 -4.625q-2.125 -2.5625 -8.0 -4.328125zm29.328125 -45.609375q-0.578125 -0.578125 -2.78125 -1.75q-2.203125 -1.171875 -4.765625 -2.203125q-2.5625 -1.03125 -3.890625 -1.46875q0.734375 1.03125 1.90625 3.59375q1.171875 2.5625 2.359375 5.796875q1.90625 -0.4375 3.953125 -1.609375q2.046875 -1.1875 3.21875 -2.359375zm0 8.078125q-2.921875 0.140625 -6.296875 -1.90625q0.578125 1.90625 1.171875 3.65625q2.78125 -1.609375 5.125 -1.75zm0 6.453125q-1.453125 -1.765625 -4.53125 -2.796875q0.4375 1.171875 0.71875 2.0625q2.359375 0.140625 3.8125 0.734375zm-17.15625 2.640625q2.34375 0.28125 5.4375 -1.03125q0.140625 -0.875 0.28125 -1.765625q-1.609375 0.296875 -3.21875 1.03125q-1.609375 0.734375 -2.5 1.765625zm64.83069 19.796875q-1.7656097 -0.296875 -4.2656097 -2.046875q-2.484375 -1.765625 -3.515625 -3.09375q1.765625 -0.296875 4.328125 -2.046875q2.5624847 -1.765625 3.4531097 -3.234375q-2.3437347 0 -5.2812347 -1.3125q-2.9375 -1.328125 -4.546875 -3.234375q2.203125 1.03125 5.421875 1.1875q3.2343597 0.140625 5.4218597 -0.890625q-0.140625 -3.21875 -2.046875 -7.25q-1.9062347 -4.046875 -4.5468597 -5.953125q4.8437347 1.03125 9.39061 4.984375q-1.03125 -1.609375 -1.765625 -3.515625q-0.734375 -1.90625 -0.734375 -3.515625q1.171875 2.203125 4.03125 4.1875q2.859375 1.96875 5.359375 2.5625q-0.296875 -1.46875 -2.5 -4.84375q-2.1875 -3.375 -4.984375 -6.75l-0.578125 0.296875q0.140625 -0.296875 0.28125 -0.734375q-2.1875 -2.640625 -4.1718597 -4.765625q-1.984375 -2.125 -3.0 -2.71875q1.015625 0.296875 3.0625 1.984375q2.0624847 1.6875 4.2656097 3.890625q0.140625 -2.203125 -0.453125 -4.84375q-0.578125 -2.640625 -1.609375 -4.109375q-0.875 -1.171875 -2.9999847 -2.484375q-2.125 -1.328125 -3.59375 -1.625q0.734375 -1.171875 2.9375 -2.484375q2.2031097 -1.328125 3.6562347 -1.46875q-1.453125 -0.59375 -3.8124847 -2.5625q-2.34375 -1.9843597 -2.921875 -3.4531097q1.46875 -0.140625 4.09375 -1.890625q2.6406097 -1.765625 3.3749847 -3.09375q-0.140625 -1.609375 0.734375 -3.953125q0.890625 -2.359375 2.0625 -3.375q0.28125 1.46875 1.53125 3.671875q1.25 2.1875 2.71875 2.921875q1.171875 -1.609375 1.96875 -4.25q0.8125 -2.640625 0.671875 -4.546875q1.3125 1.46875 2.125 4.1875q0.8125 2.703125 0.515625 4.609375q1.609375 -1.171875 3.4375 -4.171875q1.84375 -3.015625 2.125 -5.0625q1.765625 1.03125 3.453125 4.109375q1.6875 3.078125 1.984375 5.125q0 -2.203125 0.953125 -5.34375q0.953125 -3.15625 2.5625 -4.625q0 2.203125 0.953125 5.359375q0.953125 3.140625 2.5625 4.609375q1.625 -2.34375 2.0625 -6.078125q0.4375 -3.75 -0.296875 -6.53125q2.203125 3.8125 2.203125 8.9375q1.171875 -3.359375 3.078125 -5.421875q-0.15625 2.0625 0.875 4.921875q1.03125 2.859375 2.640625 4.171875q0.296875 -1.46875 1.828125 -3.65625q1.546875 -2.203125 2.859375 -2.796875q0.15625 1.46875 1.765625 3.59375q1.609375 2.125 2.9375 2.859375q1.46875 -1.171875 3.375 -3.953125q1.90625 -2.796875 2.046875 -4.703125q1.609375 1.03125 3.4375 3.890625q1.84375 2.859375 2.140625 4.765625q1.75 -2.34375 3.0625 -6.0q1.328125 -3.671875 0.890625 -6.609375q1.46875 2.5 2.34375 6.3125q0.890625 3.8125 0.296875 6.59375q3.078125 0.578125 7.109375 -0.8125q4.03125 -1.390625 6.390625 -3.4375q-1.90625 2.640625 -5.5 4.6875q-3.59375 2.046875 -6.828125 2.34375q2.0625 -0.296875 4.921875 0.515625q2.859375 0.8125 4.46875 2.125q-2.0625 -0.4375 -4.84375 0.453125q-2.78125 0.875 -4.546875 2.0468597q1.171875 1.609375 4.03125 3.453125q2.859375 1.828125 4.765625 2.109375q-1.171875 1.625 -4.03125 3.3125q-2.859375 1.6875 -4.765625 2.125q2.0625 1.46875 3.8125 4.765625q1.765625 3.296875 2.0625 5.78125q-1.90625 -1.453125 -5.71875 -1.96875q-3.8125 -0.515625 -6.171875 0.0625q0.453125 3.09375 2.71875 6.46875q2.265625 3.359375 4.90625 4.984375q-2.34375 -0.890625 -5.0625 -2.9375q-2.703125 -2.0625 -4.3125 -4.40625q0.4375 1.171875 0.65625 2.421875q0.21875 1.25 0.078125 2.125q-0.890625 -0.875 -2.796875 -1.671875q-1.90625 -0.8125 -3.21875 -0.8125q-0.296875 1.609375 0.140625 4.25q0.4375 2.640625 1.46875 3.8125q-1.609375 0.140625 -4.109375 -0.65625q-2.484375 -0.8125 -3.65625 -1.984375q-0.734375 1.90625 -0.453125 4.84375l0.453125 -0.4375q-0.15625 0.28125 -0.453125 0.71875q0.15625 1.46875 0.59375 2.203125q-0.875 0.296875 -2.5 0.15625l-0.140625 0q1.171875 0.875 2.046875 2.125q0.890625 1.25 1.1875 1.96875q1.3125 -1.015625 2.84375 -3.359375q1.546875 -2.359375 1.703125 -3.96875q1.3125 0.875 2.921875 3.296875q1.609375 2.421875 1.765625 4.03125q0.296875 -1.453125 1.75 -3.71875q1.46875 -2.28125 2.796875 -3.015625q0.4375 1.46875 1.90625 3.75q1.46875 2.265625 2.78125 2.984375q1.90625 0.15625 4.46875 -0.71875q2.578125 -0.890625 4.046875 -2.203125q-0.59375 1.90625 -2.140625 4.109375q-1.53125 2.1875 -3.296875 3.078125q1.03125 1.015625 3.15625 1.828125q2.125 0.8125 3.59375 0.65625q-1.765625 1.609375 -4.6875 2.34375q2.640625 -0.140625 5.421875 0.515625q2.78125 0.65625 4.546875 2.125q-2.640625 -0.578125 -6.234375 0.015625q-3.59375 0.578125 -5.796875 2.34375q1.46875 2.1875 4.6875 4.09375q3.234375 1.90625 5.875 2.5q-2.34375 1.3125 -6.15625 1.90625q-3.8125 0.578125 -6.3125 -0.296875q-1.3125 1.171875 -2.640625 3.890625q-1.3125 2.71875 -1.3125 4.625q-1.328125 -0.890625 -2.5 -2.875q-1.171875 -1.96875 -1.46875 -3.875q0 1.90625 -0.4375 5.125q-0.4375 3.234375 -1.171875 6.671875q-0.734375 3.453125 -1.546875 6.15625q-0.796875 2.71875 -1.53125 3.75q0.296875 -1.328125 0 -4.625q-0.296875 -3.296875 -1.03125 -7.265625q-0.734375 -3.953125 -1.609375 -7.25q-0.875 -3.296875 -1.75 -4.328125q-1.328125 1.328125 -2.5 3.96875q-1.171875 2.640625 -1.171875 4.546875q-1.46875 -1.328125 -2.640625 -3.96875q-1.171875 -2.640625 -1.171875 -4.546875q-1.90625 1.90625 -3.078125 5.640625q-1.171875 3.75 -1.03125 6.53125q-1.765625 -2.046875 -3.15625 -5.796875q-1.390625 -3.734375 -0.953125 -6.375q-1.75 1.609375 -3.65625 4.984375q-1.90625 3.375 -1.90625 5.71875q-1.90625 -1.46875 -3.671875 -4.921875q-1.765625 -3.4375 -1.90625 -5.78125q-1.609375 1.46875 -3.453125 4.46875q-1.828125 3.015625 -2.125 5.21875q-1.75 -1.328125 -3.59375 -4.40625q-1.828125 -3.078125 -1.828125 -5.28125q-1.609375 2.5 -2.125 6.453125q-0.515625 3.96875 0.359375 6.890625q-1.3125 -2.046875 -1.984375 -5.203125q-0.65625 -3.15625 -0.359375 -5.9375q-0.734375 2.484375 -2.125 5.046875q-1.390625 2.578125 -2.859375 3.890625q0.140625 -2.484375 -2.0625 -7.03125q-2.1875 -4.546875 -6.0 -11.875zm9.96875 -43.265625q-0.296875 1.90625 -1.984375 4.109375q-1.6875 2.1875 -3.59375 3.65625q2.9375 2.9375 5.5 6.015625q2.578125 3.078125 3.015625 4.40625q0.140625 -1.328125 -0.671875 -3.078125q-0.796875 -1.765625 -1.671875 -2.796875q1.3125 0.296875 2.921875 1.25q1.625 0.953125 2.5 1.984375q-0.59375 -0.890625 -0.734375 -2.640625q-0.140625 -1.765625 0 -3.375q-1.765625 -1.328125 -3.375 -4.40625q-1.609375 -3.078125 -1.90625 -5.125zm11.140625 0q-1.46875 1.03125 -2.9375 3.296875q-1.453125 2.265625 -2.1875 4.46875q1.3125 0.890625 3.734375 1.328125q2.421875 0.4375 3.75 0q-1.03125 -0.890625 -1.921875 -2.5q-0.875 -1.609375 -0.875 -2.9375q0.59375 1.03125 1.90625 2.0625q0.59375 -1.03125 1.328125 -1.90625q-0.15625 -0.59375 -0.296875 -1.171875q-0.4375 1.015625 -0.4375 1.75q-0.734375 -0.578125 -1.40625 -1.96875q-0.65625 -1.390625 -0.65625 -2.421875zm4.109375 0l0 0l0 0l0 0zm0.4375 7.1875q-0.734375 -0.890625 -1.3125 -2.5q-0.875 0.59375 -1.46875 1.171875q1.46875 1.03125 2.78125 1.328125zm18.921875 16.125q-0.140625 1.03125 0.296875 2.5q0.734375 -0.296875 1.609375 -0.59375q0.296875 -0.578125 0.59375 -1.015625q-1.765625 -0.296875 -2.5 -0.890625zm41.949097 19.953125q-1.765625 -0.296875 -4.265625 -2.046875q-2.484375 -1.765625 -3.515625 -3.09375q1.765625 -0.296875 4.328125 -2.046875q2.5625 -1.765625 3.453125 -3.234375q-2.34375 0 -5.28125 -1.3125q-2.9375 -1.328125 -4.546875 -3.234375q2.203125 1.03125 5.421875 1.1875q3.234375 0.140625 5.421875 -0.890625q-0.140625 -3.21875 -2.046875 -7.25q-1.90625 -4.046875 -4.546875 -5.953125q4.84375 1.03125 9.390625 4.984375q-1.03125 -1.609375 -1.765625 -3.515625q-0.734375 -1.90625 -0.734375 -3.515625q1.171875 2.203125 4.03125 4.1875q2.859375 1.96875 5.359375 2.5625q-0.296875 -1.46875 -2.5 -4.84375q-2.1875 -3.375 -4.984375 -6.75l-0.578125 0.296875q0.140625 -0.296875 0.28125 -0.734375q-2.1875 -2.640625 -4.171875 -4.765625q-1.984375 -2.125 -3.0 -2.71875q1.015625 0.296875 3.0625 1.984375q2.0625 1.6875 4.265625 3.890625q0.140625 -2.203125 -0.453125 -4.84375q-0.578125 -2.640625 -1.609375 -4.109375q-0.875 -1.171875 -3.0 -2.484375q-2.125 -1.328125 -3.59375 -1.625q0.734375 -1.171875 2.9375 -2.484375q2.203125 -1.328125 3.65625 -1.46875q-1.453125 -0.59375 -3.8125 -2.5625q-2.34375 -1.9843597 -2.921875 -3.4531097q1.46875 -0.140625 4.09375 -1.890625q2.640625 -1.765625 3.375 -3.09375q-0.140625 -1.609375 0.734375 -3.953125q0.890625 -2.359375 2.0625 -3.375q0.28125 1.46875 1.53125 3.671875q1.25 2.1875 2.71875 2.921875q1.171875 -1.609375 1.96875 -4.25q0.8125 -2.640625 0.671875 -4.546875q1.3125 1.46875 2.125 4.1875q0.8125 2.703125 0.515625 4.609375q1.609375 -1.171875 3.4375 -4.171875q1.84375 -3.015625 2.125 -5.0625q1.765625 1.03125 3.453125 4.109375q1.6875 3.078125 1.984375 5.125q0 -2.203125 0.953125 -5.34375q0.953125 -3.15625 2.5625 -4.625q0 2.203125 0.953125 5.359375q0.953125 3.140625 2.5625 4.609375q1.625 -2.34375 2.0625 -6.078125q0.4375 -3.75 -0.296875 -6.53125q2.203125 3.8125 2.203125 8.9375q1.171875 -3.359375 3.078125 -5.421875q-0.15625 2.0625 0.875 4.921875q1.03125 2.859375 2.640625 4.171875q0.296875 -1.46875 1.828125 -3.65625q1.546875 -2.203125 2.859375 -2.796875q0.15625 1.46875 1.765625 3.59375q1.609375 2.125 2.9375 2.859375q1.46875 -1.171875 3.375 -3.953125q1.90625 -2.796875 2.046875 -4.703125q1.609375 1.03125 3.4375 3.890625q1.84375 2.859375 2.140625 4.765625q1.75 -2.34375 3.0625 -6.0q1.328125 -3.671875 0.890625 -6.609375q1.46875 2.5 2.34375 6.3125q0.890625 3.8125 0.296875 6.59375q3.078125 0.578125 7.109375 -0.8125q4.03125 -1.390625 6.390625 -3.4375q-1.90625 2.640625 -5.5 4.6875q-3.59375 2.046875 -6.828125 2.34375q2.0625 -0.296875 4.921875 0.515625q2.859375 0.8125 4.46875 2.125q-2.0625 -0.4375 -4.84375 0.453125q-2.78125 0.875 -4.546875 2.0468597q1.171875 1.609375 4.03125 3.453125q2.859375 1.828125 4.765625 2.109375q-1.171875 1.625 -4.03125 3.3125q-2.859375 1.6875 -4.765625 2.125q2.0625 1.46875 3.8125 4.765625q1.765625 3.296875 2.0625 5.78125q-1.90625 -1.453125 -5.71875 -1.96875q-3.8125 -0.515625 -6.171875 0.0625q0.453125 3.09375 2.71875 6.46875q2.265625 3.359375 4.90625 4.984375q-2.34375 -0.890625 -5.0625 -2.9375q-2.703125 -2.0625 -4.3125 -4.40625q0.4375 1.171875 0.65625 2.421875q0.21875 1.25 0.078125 2.125q-0.890625 -0.875 -2.796875 -1.671875q-1.90625 -0.8125 -3.21875 -0.8125q-0.296875 1.609375 0.140625 4.25q0.4375 2.640625 1.46875 3.8125q-1.609375 0.140625 -4.109375 -0.65625q-2.484375 -0.8125 -3.65625 -1.984375q-0.734375 1.90625 -0.453125 4.84375l0.453125 -0.4375q-0.15625 0.28125 -0.453125 0.71875q0.15625 1.46875 0.59375 2.203125q-0.875 0.296875 -2.5 0.15625l-0.140625 0q1.171875 0.875 2.046875 2.125q0.890625 1.25 1.1875 1.96875q1.3125 -1.015625 2.84375 -3.359375q1.546875 -2.359375 1.703125 -3.96875q1.3125 0.875 2.921875 3.296875q1.609375 2.421875 1.765625 4.03125q0.296875 -1.453125 1.75 -3.71875q1.46875 -2.28125 2.796875 -3.015625q0.4375 1.46875 1.90625 3.75q1.46875 2.265625 2.78125 2.984375q1.90625 0.15625 4.46875 -0.71875q2.578125 -0.890625 4.046875 -2.203125q-0.59375 1.90625 -2.140625 4.109375q-1.53125 2.1875 -3.296875 3.078125q1.03125 1.015625 3.15625 1.828125q2.125 0.8125 3.59375 0.65625q-1.765625 1.609375 -4.6875 2.34375q2.640625 -0.140625 5.421875 0.515625q2.78125 0.65625 4.546875 2.125q-2.640625 -0.578125 -6.234375 0.015625q-3.59375 0.578125 -5.796875 2.34375q1.46875 2.1875 4.6875 4.09375q3.234375 1.90625 5.875 2.5q-2.34375 1.3125 -6.15625 1.90625q-3.8125 0.578125 -6.3125 -0.296875q-1.3125 1.171875 -2.640625 3.890625q-1.3125 2.71875 -1.3125 4.625q-1.328125 -0.890625 -2.5 -2.875q-1.171875 -1.96875 -1.46875 -3.875q0 1.90625 -0.4375 5.125q-0.4375 3.234375 -1.171875 6.671875q-0.734375 3.453125 -1.546875 6.15625q-0.796875 2.71875 -1.53125 3.75q0.296875 -1.328125 0 -4.625q-0.296875 -3.296875 -1.03125 -7.265625q-0.734375 -3.953125 -1.609375 -7.25q-0.875 -3.296875 -1.75 -4.328125q-1.328125 1.328125 -2.5 3.96875q-1.171875 2.640625 -1.171875 4.546875q-1.46875 -1.328125 -2.640625 -3.96875q-1.171875 -2.640625 -1.171875 -4.546875q-1.90625 1.90625 -3.078125 5.640625q-1.171875 3.75 -1.03125 6.53125q-1.765625 -2.046875 -3.15625 -5.796875q-1.390625 -3.734375 -0.953125 -6.375q-1.75 1.609375 -3.65625 4.984375q-1.90625 3.375 -1.90625 5.71875q-1.90625 -1.46875 -3.671875 -4.921875q-1.765625 -3.4375 -1.90625 -5.78125q-1.609375 1.46875 -3.453125 4.46875q-1.828125 3.015625 -2.125 5.21875q-1.75 -1.328125 -3.59375 -4.40625q-1.828125 -3.078125 -1.828125 -5.28125q-1.609375 2.5 -2.125 6.453125q-0.515625 3.96875 0.359375 6.890625q-1.3125 -2.046875 -1.984375 -5.203125q-0.65625 -3.15625 -0.359375 -5.9375q-0.734375 2.484375 -2.125 5.046875q-1.390625 2.578125 -2.859375 3.890625q0.140625 -2.484375 -2.0625 -7.03125q-2.1875 -4.546875 -6.0 -11.875zm9.96875 -43.265625q-0.296875 1.90625 -1.984375 4.109375q-1.6875 2.1875 -3.59375 3.65625q2.9375 2.9375 5.5 6.015625q2.578125 3.078125 3.015625 4.40625q0.140625 -1.328125 -0.671875 -3.078125q-0.796875 -1.765625 -1.671875 -2.796875q1.3125 0.296875 2.921875 1.25q1.625 0.953125 2.5 1.984375q-0.59375 -0.890625 -0.734375 -2.640625q-0.140625 -1.765625 0 -3.375q-1.765625 -1.328125 -3.375 -4.40625q-1.609375 -3.078125 -1.90625 -5.125zm11.140625 0q-1.46875 1.03125 -2.9375 3.296875q-1.453125 2.265625 -2.1875 4.46875q1.3125 0.890625 3.734375 1.328125q2.421875 0.4375 3.75 0q-1.03125 -0.890625 -1.921875 -2.5q-0.875 -1.609375 -0.875 -2.9375q0.59375 1.03125 1.90625 2.0625q0.59375 -1.03125 1.328125 -1.90625q-0.15625 -0.59375 -0.296875 -1.171875q-0.4375 1.015625 -0.4375 1.75q-0.734375 -0.578125 -1.40625 -1.96875q-0.65625 -1.390625 -0.65625 -2.421875zm4.109375 0l0 0l0 0l0 0zm0.4375 7.1875q-0.734375 -0.890625 -1.3125 -2.5q-0.875 0.59375 -1.46875 1.171875q1.46875 1.03125 2.78125 1.328125zm18.921875 16.125q-0.140625 1.03125 0.296875 2.5q0.734375 -0.296875 1.609375 -0.59375q0.296875 -0.578125 0.59375 -1.015625q-1.765625 -0.296875 -2.5 -0.890625zm55.44156 49.421875q-1.46875 -2.203125 -4.40625 -4.328125q-2.9375 -2.125 -5.421875 -2.703125q2.484375 -0.4375 6.078125 0.0625q3.59375 0.515625 5.65625 2.140625q-1.328125 -0.890625 -2.9375 -3.453125q-1.609375 -2.5625 -1.90625 -4.1875q1.609375 0.15625 4.609375 -0.359375q3.015625 -0.515625 4.34375 -1.546875q-3.09375 -0.4375 -6.546875 -2.9375q-3.4375 -2.484375 -4.75 -5.265625q2.640625 1.46875 6.671875 2.125q4.03125 0.65625 6.96875 0.21875q-1.625 -2.203125 -4.78125 -4.109375q-3.140625 -1.90625 -5.921875 -1.90625q2.484375 -1.03125 6.21875 -1.09375q3.75 -0.078125 6.09375 1.25q-1.46875 -1.1875 -4.546875 -1.625q-3.078125 -0.4375 -4.6875 0q0.4375 -1.609375 2.125 -4.09375q1.6875 -2.5 3.15625 -3.53125q-1.90625 1.46875 -5.0625 2.140625q-3.15625 0.65625 -5.359375 0.0625q2.34375 -0.4375 4.90625 -2.1875q2.578125 -1.765625 3.890625 -3.828125q-2.78125 1.46875 -7.265625 2.0625q-4.46875 0.578125 -7.546875 -0.453125q3.078125 -1.171875 6.59375 -3.953125q3.53125 -2.78125 4.84375 -5.71875q-1.75 0.875 -4.765625 0.875q-3.0 0 -4.765625 -0.578125q1.765625 -0.734375 3.96875 -2.78125q2.203125 -2.0625 2.78125 -3.96875q-1.609375 -0.734375 -4.328125 -0.875q-2.703125 -0.15625 -4.46875 0.4375q0.734375 -1.609375 2.484375 -3.65625q1.765625 -2.0625 3.375 -2.953125q-2.921875 -1.3125 -7.546875 -0.796875q-4.625 0.515625 -7.40625 2.125q1.3125 -2.640625 4.171875 -5.34375q2.875 -2.71875 5.65625 -4.046875q-1.609375 0.4375 -3.59375 0.375q-1.984375 -0.078125 -3.296875 -0.515625q1.75 -0.59375 3.578125 -2.421875q1.84375 -1.828125 2.4375 -3.453125q-1.765625 -1.171875 -5.296875 -1.3125q-3.515625 -0.140625 -5.5625 0.578125q0.734375 -2.046875 2.859375 -4.828125q2.125 -2.796875 4.1875 -3.53125q-2.203125 1.03125 -5.953125 1.1875q-3.734375 0.140625 -5.9375 -0.890625q2.34375 -1.015625 4.984375 -3.5156097q2.640625 -2.5 3.53125 -4.84375q-1.765625 -1.015625 -3.375 -3.0625q-1.609375 -2.0625 -1.90625 -3.96875q1.171875 1.46875 3.515625 2.640625q2.34375 1.171875 4.25 1.3125q-0.140625 -1.609375 0.953125 -3.875q1.109375 -2.28125 2.28125 -3.453125q-0.15625 1.609375 0.875 3.890625q1.03125 2.265625 2.203125 3.4375q1.171875 -0.875 2.046875 -2.859375q0.890625 -1.984375 0.890625 -3.4375q1.015625 0.71875 1.8125 2.484375q0.8125 1.765625 0.96875 3.078125q0.140625 -2.203125 1.390625 -4.90625q1.25 -2.71875 2.71875 -4.03125q0 2.1875 1.234375 5.203125q1.25 3.0 2.71875 4.46875q2.203125 -1.75 3.515625 -5.265625q1.328125 -3.53125 1.328125 -6.171875q1.3125 2.34375 1.828125 6.015625q0.515625 3.671875 -0.21875 6.296875q2.203125 0.59375 5.34375 -0.0625q3.15625 -0.65625 5.0625 -1.984375q-1.3125 1.90625 -3.734375 3.890625q-2.421875 1.96875 -4.625 2.5625q1.625 1.171875 5.140625 1.765625q3.515625 0.578125 5.71875 0.140625q-0.578125 2.0468597 -2.9375 4.7656097q-2.34375 2.71875 -4.25 3.734375q0.59375 0.734375 2.5625 1.765625q1.984375 1.03125 3.015625 1.171875q0 0.875 -0.8125 3.015625q-0.796875 2.125 -1.53125 2.703125q1.171875 -0.4375 2.921875 -0.4375q-0.140625 -0.296875 -0.28125 -0.734375q1.90625 0.4375 4.90625 0q3.0 -0.4375 4.625 -1.46875q-1.46875 -0.296875 -3.15625 -1.828125q-1.6875 -1.546875 -2.28125 -3.0q1.328125 0.71875 3.59375 0.71875q2.28125 0 3.59375 -0.71875q0.15625 -1.03125 -0.734375 -3.375q-0.875 -2.359375 -1.453125 -3.078125q0.578125 -0.734375 2.703125 -2.046875q2.125 -1.3281097 3.15625 -1.3281097q-0.734375 -2.359375 -2.859375 -5.140625q-2.125 -2.78125 -4.328125 -3.8125q2.34375 -0.4375 5.859375 0.078125q3.53125 0.515625 5.4375 1.984375q-0.59375 -2.0625 -0.234375 -4.765625q0.375 -2.71875 1.25 -4.484375q-0.4375 1.90625 0.140625 4.625q0.59375 2.71875 1.765625 4.46875q-0.578125 -2.484375 -0.296875 -5.9375q0.296875 -3.453125 1.765625 -5.640625q-0.734375 2.484375 -0.375 5.9375q0.375 3.4375 1.84375 5.640625q1.609375 -1.75 2.78125 -5.046875q1.1875 -3.3125 1.328125 -5.65625q1.46875 1.765625 2.703125 5.0625q1.25 3.296875 1.25 5.640625q0 -2.9375 1.609375 -7.109375q1.625 -4.1875 3.96875 -6.09375q0.140625 2.9375 1.828125 6.96875q1.6875 4.03125 3.75 6.234375q1.4687195 -0.140625 3.5937195 0.671875q2.125 0.796875 3.296875 1.828125q-1.46875 0.140625 -3.453125 1.390625q-1.96875 1.25 -2.7030945 2.5625q2.7812195 0.4375 5.9374695 2.7968597q3.15625 2.34375 4.328125 4.828125q-2.203125 -1.75 -6.015625 -2.40625q-3.8124695 -0.671875 -6.5937195 0.0625q1.171875 2.34375 3.8749695 5.0625q2.71875 2.703125 5.203125 3.296875q-2.484375 0.875 -6.2968445 0.734375q-3.8125 -0.140625 -6.015625 -1.46875q0.875 2.5 3.515625 5.65625q2.640625 3.140625 5.1405945 4.03125q-2.4999695 1.171875 -6.5312195 1.3125q-4.03125 0.140625 -6.53125 -0.734375q0.59375 2.34375 3.078125 5.421875q2.5 3.078125 4.84375 3.96875q-2.203125 1.171875 -6.09375 1.390625q-3.875 0.21875 -6.21875 -0.515625q1.90625 2.5 5.5 4.40625q3.59375 1.90625 6.671875 2.34375q-2.0625 0.4375 -4.703125 -0.140625q-2.625 -0.59375 -4.984375 -1.625q3.96875 3.53125 5.28125 7.1875q-2.484375 -0.875 -6.515625 -0.875q-4.03125 0 -6.53125 1.03125q1.609375 2.78125 5.34375 4.90625q3.75 2.125 6.96875 2.71875q-3.078125 0.578125 -7.265625 -0.59375q-4.171875 -1.171875 -6.65625 -3.21875q0.875 1.90625 3.21875 3.8125q2.34375 1.90625 4.40625 2.34375q-2.0625 0.4375 -5.0 0.140625q-2.921875 -0.296875 -4.6875 -1.46875q0.890625 2.796875 4.03125 5.796875q3.15625 3.0 5.796875 4.1875q-2.640625 1.3125 -7.046875 1.09375q-4.390625 -0.21875 -7.03125 -1.390625q1.328125 2.484375 4.546875 4.6875q3.234375 2.203125 6.015625 2.640625q-2.34375 0.734375 -5.65625 0.21875q-3.296875 -0.515625 -5.640625 -1.828125q1.609375 1.3125 3.078125 3.515625q1.46875 2.203125 1.90625 3.8125q-1.90625 -0.734375 -5.140625 -0.375q-3.21875 0.375 -5.125 1.25q1.765625 0.734375 3.515625 2.78125q1.765625 2.0625 2.5 3.671875q-1.609375 -0.578125 -4.328125 -0.578125q-2.703125 0 -4.46875 0.734375q0.296875 1.75 1.984375 4.609375q1.6875 2.875 3.296875 3.890625q-1.609375 1.03125 -4.921875 1.25q-3.296875 0.21875 -5.046875 -0.359375q-1.328125 2.34375 -1.84375 5.78125q-0.515625 3.453125 0.21875 5.9375q-1.90625 -1.75 -3.078125 -5.0625q-1.171875 -3.296875 -1.171875 -5.9375q-1.90625 2.203125 -3.015625 6.09375q-1.09375 3.890625 -0.5 6.671875q-1.609375 -1.90625 -2.5625 -5.140625q-0.953125 -3.21875 -0.953125 -6.0q-0.296875 2.484375 -1.6875 5.265625q-1.390625 2.796875 -3.015625 4.109375q-0.140625 -2.484375 -1.46875 -6.015625q-1.3125 -3.515625 -3.21875 -4.984375q0 1.46875 -0.515625 3.453125q-0.515625 1.984375 -1.53125 3.0q0.140625 -1.453125 -0.453125 -4.25q-0.578125 -2.78125 -1.75 -8.359375zm29.03125 -64.53125q-1.46875 -0.734375 -3.21875 -2.640625q-1.03125 1.03125 -1.765625 2.0625q3.078125 -0.296875 4.984375 0.578125z" fill-rule="nonzero"/><path fill="#595959" d="m568.84937 257.45624l0 23.46875q0 4.921875 3.28125 7.5625q3.296875 2.625 9.0625 2.625q5.765625 0 8.171875 -1.671875q2.40625 -1.6875 4.5625 -6.015625q2.171875 -4.34375 6.796875 -4.34375l31.6875 0q2.25 0 3.875 1.625q1.625 1.625 1.625 3.875q0 14.671875 -13.6875 26.65625q-6.8125 5.890625 -17.90625 9.46875q-11.09375 3.5625 -26.0 3.5625q-14.890625 0 -27.359375 -4.671875q-12.46875 -4.671875 -20.375 -15.421875q-7.90625 -10.765625 -7.90625 -26.328125l0 -17.3125q0 -15.562485 7.921875 -26.42186q14.765625 -20.0 48.921875 -20.0q13.703125 0 24.796875 3.578125q11.09375 3.5625 17.90625 9.453125q13.6875 11.96875 13.6875 26.640625q0 2.2656097 -1.625 3.8906097q-1.625 1.625 -3.875 1.625l-31.6875 0q-4.625 0 -6.796875 -4.3281097q-2.15625 -4.34375 -4.5625 -6.015625q-2.40625 -1.6875 -8.171875 -1.6875q-5.765625 0 -9.0625 2.640625q-3.28125 2.625 -3.28125 7.5468597zm112.72034 65.34375l-27.71875 0q-2.25 0 -3.875 -1.625q-1.625 -1.625 -1.625 -3.15625q0 -1.53125 0.25 -2.328125l31.953125 -93.656235q1.78125 -6.453125 8.796875 -6.453125l40.765625 0q7.03125 0 8.78125 6.453125l31.9375 93.624985q0.28125 0.796875 0.28125 2.34375q0 1.546875 -1.625 3.171875q-1.625 1.625 -3.890625 1.625l-27.71875 0q-6.25 0 -8.734375 -6.46875l-3.140625 -8.78125l-32.5625 0l-3.140625 8.78125q-2.484375 6.46875 -8.734375 6.46875zm35.390625 -48.40625l-7.234375 -21.17186l-7.21875 21.17186l14.453125 0zm70.97034 -58.812485l101.1875 0q2.546875 0 4.390625 1.84375q1.859375 1.828125 1.859375 4.390625l0 23.609375q0 2.578125 -1.859375 4.421875q-1.84375 1.828125 -4.390625 1.828125l-29.25 0l0 64.89061q0 2.546875 -1.84375 4.390625q-1.84375 1.84375 -4.390625 1.84375l-30.21875 0q-2.546875 0 -4.390625 -1.84375q-1.84375 -1.84375 -1.84375 -4.390625l0 -64.89061l-29.25 0q-2.546875 0 -4.40625 -1.828125q-1.84375 -1.84375 -1.84375 -4.421875l0 -23.609375q0 -2.5625 1.84375 -4.390625q1.859375 -1.84375 4.40625 -1.84375z" fill-rule="nonzero"/></g></svg>