<svg version="1.1" viewBox="0.0 0.0 960.0 540.0" fill="none" stroke="none" stroke-linecap="square" stroke-miterlimit="10" xmlns:xlink="http://www.w3.org/1999/xlink" xmlns="http://www.w3.org/2000/svg"><clipPath id="g319f9c902f6_0_5.0"><path d="m0 0l960.0 0l0 540.0l-960.0 0l0 -540.0z" clip-rule="nonzero"/></clipPath><g clip-path="url(#g319f9c902f6_0_5.0)"><path fill="#000000" fill-opacity="0.0" d="m0 0l960.0 0l0 540.0l-960.0 0z" fill-rule="evenodd"/><path fill="#000000" fill-opacity="0.0" d="m136.62993 184.34645l686.7401 0l0 148.66142l-686.7401 0z" fill-rule="evenodd"/><path fill="#595959" d="m180.26393 292.0121q-2.140625 0.421875 -5.078125 -0.578125q-2.921875 -1.015625 -4.625 -2.40625q2.125 0.21875 5.0625 -0.6875q2.9375 -0.90625 4.640625 -2.296875q-1.171875 -1.171875 -3.46875 -2.5q-2.296875 -1.34375 -4.0 -1.34375q0.859375 -1.171875 2.828125 -2.234375q1.96875 -1.078125 3.578125 -1.390625q-2.453125 0.109375 -5.390625 -0.640625q-2.9375 -0.75 -4.75 -2.125q2.453125 0.625 5.8125 -0.171875q3.359375 -0.796875 5.390625 -2.28125q-1.28125 -1.5 -4.0 -2.78125q-2.71875 -1.28125 -4.640625 -1.0625q1.390625 -1.390625 4.046875 -2.609375q2.671875 -1.234375 4.59375 -1.234375q-2.140625 -1.171875 -5.390625 -1.4375q-3.25 -0.265625 -5.59375 0.375q2.03125 -1.390625 5.328125 -1.59375q3.3125 -0.21875 5.65625 0.53125q-1.5 -1.609375 -4.484375 -2.78125q-2.984375 -1.171875 -5.109375 -1.0625q1.59375 -1.5 4.515625 -2.78125q2.9375 -1.2812653 5.078125 -1.0625153q-1.171875 -1.171875 -3.421875 -1.96875q-2.234375 -0.796875 -3.828125 -0.59375q1.171875 -1.171875 3.40625 -1.96875q2.25 -0.796875 3.84375 -0.59375q-2.03125 -1.265625 -5.171875 -1.796875q-3.140625 -0.546875 -5.5 0.09375q1.078125 -0.75 2.625 -1.21875q1.546875 -0.484375 3.140625 -0.703125q-3.515625 -0.734375 -5.65625 -2.34375q2.34375 0.53125 5.484375 -0.265625q3.15625 -0.796875 5.078125 -2.296875q-1.390625 0.109375 -3.421875 -0.53125q-2.015625 -0.640625 -2.984375 -1.703125q1.5 0 3.421875 -0.6875q1.921875 -0.703125 2.984375 -1.65625q-1.703125 0 -4.0625 -0.6875q-2.34375 -0.703125 -3.515625 -1.875q1.71875 0.3125 4.0625 -0.53125q2.34375 -0.859375 3.515625 -2.03125q-2.453125 0.421875 -5.8125 -0.640625q-3.359375 -1.0625 -5.171875 -2.765625q2.453125 0.3125 5.8125 -0.6875q3.359375 -1.015625 5.171875 -2.734375q-1.171875 -2.015625 -3.796875 -3.5625q-2.609375 -1.546875 -4.84375 -2.078125q2.34375 -0.109375 5.21875 0.796875q2.890625 0.90625 4.59375 2.390625q-0.640625 -2.5625 0.203125 -6.078125q0.859375 -3.515625 2.578125 -5.4375q-0.546875 2.5625 0.3125 6.03125q0.859375 3.46875 2.453125 5.484375q-0.53125 -2.453125 0.109375 -5.75q0.640625 -3.3125 2.03125 -5.4375q-0.75 2.453125 -0.015625 5.765625q0.75 3.296875 2.140625 5.421875q0 -1.703125 1.328125 -4.203125q1.34375 -2.515625 2.71875 -3.578125q0 1.703125 1.328125 4.21875q1.34375 2.5 2.734375 3.5625q1.390625 -1.59375 2.015625 -4.421875q0.640625 -2.828125 0.109375 -4.859375q1.390625 1.609375 1.96875 4.4375q0.59375 2.828125 0.171875 4.84375q1.484375 -1.703125 2.125 -4.734375q0.640625 -3.046875 0.21875 -5.28125q1.0625 1.28125 1.703125 3.46875q0.640625 2.171875 0.75 4.3125q0.21875 -1.390625 0.6875 -2.609375q0.484375 -1.234375 1.125 -2.078125q-0.21875 1.59375 0.359375 3.625q0.59375 2.015625 1.5625 3.296875q-0.109375 -1.375 0.421875 -3.34375q0.53125 -1.984375 1.5 -3.046875q-0.328125 1.375 0.25 3.40625q0.59375 2.03125 1.671875 2.984375q-0.75 -2.65625 -0.0625 -6.28125q0.703125 -3.640625 2.1875 -5.984375q-0.75 2.671875 0 6.296875q0.75 3.625 2.140625 5.96875q0.953125 -1.171875 1.484375 -3.1875q0.53125 -2.03125 0.4375 -3.53125q0.84375 0.96875 1.328125 2.5625q0.484375 1.59375 0.578125 3.09375q0.109375 -2.125 0.953125 -4.53125q0.859375 -2.40625 2.046875 -3.78125q-0.109375 2.125 0.796875 4.953125q0.90625 2.828125 2.1875 4.421875q1.59375 -0.203125 3.609375 -1.75q2.03125 -1.546875 2.890625 -2.9375q0.640625 1.59375 0.15625 4.046875q-0.46875 2.453125 -1.21875 3.953125q2.5625 -0.21875 6.078125 0.6875q3.515625 0.90625 5.4375 2.71875q-2.5625 -0.3125 -6.078125 0.703125q-3.515625 1.015625 -5.4375 2.71875q2.65625 -0.53125 6.328125 0.484375q3.6875 1.0 5.828125 2.71875q-2.671875 -0.640625 -6.40625 0.375q-3.71875 1.0 -5.75 2.8125q-0.859375 1.5 -1.234375 3.90625q-0.375 2.390625 0.0625 3.984375q-1.28125 -0.84375 -2.515625 -2.703125q-1.21875 -1.875 -1.640625 -3.46875q0.421875 1.8125 -0.0625 4.15625q-0.484375 2.34375 -1.546875 3.84375q0.53125 -1.921875 0.046875 -4.421875q-0.46875 -2.515625 -1.53125 -4.125q-0.109375 1.078125 -0.8125 2.515625q-0.6875 1.4375 -1.546875 2.609375q1.171875 1.171875 2.234375 3.359375q1.078125 2.1875 0.96875 3.6875q1.28125 -0.4375 2.71875 -1.765625q1.4375 -1.328125 1.984375 -2.5q0.625 1.0625 0.890625 3.09375q0.28125 2.015625 -0.15625 3.1875q1.390625 1.3906403 4.046875 2.3593903q2.671875 0.953125 4.59375 0.625q-1.484375 1.28125 -4.109375 2.25q-2.609375 0.953125 -4.53125 0.75q1.171875 1.265625 3.25 2.1875q2.09375 0.90625 4.375 1.390625q2.296875 0.46875 4.0 0.359375q-1.8125 1.921875 -5.4375 3.09375q-3.625 1.171875 -6.1875 0.953125q0.640625 1.828125 0 4.703125q-0.640625 2.875 -1.703125 4.578125q-0.21875 -1.921875 -1.984375 -4.265625q-1.75 -2.34375 -3.453125 -3.40625q-1.28125 1.0625 -2.671875 3.515625q-1.375 2.453125 -1.28125 4.15625q-1.375 -1.0625 -2.71875 -3.515625q-1.328125 -2.453125 -1.328125 -4.15625q-1.171875 2.125 -1.609375 5.21875q-0.421875 3.09375 0.109375 5.4375q-1.171875 -2.125 -1.65625 -5.21875q-0.46875 -3.09375 0.171875 -5.4375q-0.859375 1.484375 -1.28125 3.734375q-0.421875 2.234375 -0.21875 4.15625l0 0l0 0q0.109375 0.75 0.21875 1.390625q-0.328125 -0.640625 -0.640625 -1.5q-1.28125 -0.3125 -2.875 -0.203125q-0.21875 2.125 0.109375 3.828125q-0.96875 -1.59375 -1.609375 -3.734375q-1.28125 0.109375 -2.5625 0.4375q-0.203125 0.421875 -0.421875 0.734375q0 -0.203125 0 -0.53125q-2.453125 0.75 -3.84375 1.921875q1.8125 -0.109375 4.265625 0.703125q2.453125 0.796875 3.734375 2.078125q-1.8125 -0.109375 -4.328125 0.6875q-2.5 0.796875 -3.671875 2.078125q1.703125 -0.109375 4.109375 0.90625q2.40625 1.015625 3.46875 2.296875q-1.703125 0.109375 -4.109375 1.015625q-2.390625 0.90625 -3.46875 2.1875q-0.84375 1.8125 -0.640625 4.53125q0.21875 2.71875 0.96875 4.53125q-1.5 -1.28125 -2.5625 -3.796875q-1.0625 -2.5 -1.0625 -4.53125q-1.171875 0.859375 -2.296875 2.9375q-1.125 2.078125 -1.125 3.578125q-1.0625 -0.96875 -2.140625 -3.0q-1.0625 -2.015625 -1.265625 -3.515625q-0.96875 1.390625 -1.234375 3.734375q-0.265625 2.359375 0.265625 4.0625q-0.84375 -1.171875 -1.171875 -2.984375q-0.3125 1.484375 -0.953125 2.453125q0.53125 -1.5 0.15625 -3.6875q-0.375 -2.1875 -1.21875 -3.578125q-1.5 1.71875 -2.03125 4.703125q-0.53125 2.984375 -0.109375 5.109375q-1.390625 -1.703125 -2.078125 -4.6875q-0.6875 -2.984375 -0.046875 -5.125q-1.078125 2.03125 -1.5625 5.015625q-0.46875 2.984375 0.28125 5.125q-1.078125 -2.03125 -1.671875 -5.234375q-0.578125 -3.1875 -0.359375 -6.5zm32.0 -51.093765q-0.53125 0.75 -1.078125 1.8125q0.640625 0.328125 1.28125 0.640625q-0.421875 -1.375 -0.203125 -2.453125zm0.640625 5.34375q-0.21875 1.484375 0.578125 3.578125q0.796875 2.078125 1.765625 3.25q-0.109375 -1.28125 0.421875 -3.046875q0.53125 -1.765625 1.28125 -3.140625q0.109375 -1.28125 -0.53125 -3.09375q-0.640625 -1.8125 -1.59375 -2.890625q-0.96875 1.1875 -1.28125 3.203125q0.640625 0.4375 1.0625 0.96875q-0.53125 -0.109375 -1.0625 -0.21875q0 0.421875 0 0.640625q-0.21875 -0.328125 -0.4375 -0.640625q-1.28125 -0.109375 -2.765625 0q-0.328125 1.59375 -0.109375 2.671875q-0.859375 -0.859375 -1.5 -2.359375q-1.375 0.21875 -2.765625 0.75q-0.3125 0.4375 -0.640625 0.75q0 -0.3125 -0.109375 -0.53125q-1.8125 0.640625 -3.09375 1.484375q0.75 0.640625 1.921875 1.078125q0.421875 -0.4375 0.859375 -0.75q-0.109375 0.421875 -0.21875 1.0625q0.859375 0.328125 1.703125 0.53125q0.75 -1.171875 1.5 -1.8125q0 0.96875 0.53125 2.140625q1.5 0.203125 2.671875 0.109375q0.734375 -2.453125 1.8125 -3.734375zm6.1875 -5.34375q0.203125 1.078125 -0.171875 2.40625q-0.375 1.328125 -0.90625 2.5q-0.09375 1.609375 0.8125 3.796875q0.90625 2.1875 1.96875 3.46875q1.0625 -0.96875 2.078125 -2.890625q1.015625 -1.921875 1.328125 -3.515625q-0.53125 0.640625 -1.0625 1.0625q-0.3125 -1.484375 -1.59375 -3.671875q-1.28125 -2.1875 -2.453125 -3.15625zm-11.09375 0.546875q0 -0.328125 0 -0.109375l0 0.109375zm2.5625 11.625q0 -1.171875 0.421875 -2.671875q-0.859375 0.53125 -1.8125 0.859375q0.75 1.265625 1.390625 1.8125zm-5.453125 0q0 -0.328125 0.109375 -0.75l-0.421875 0q0.109375 0.421875 0.3125 0.75zm6.625 22.39064q-0.4375 0.328125 -1.078125 0.53125q-0.09375 0.421875 -0.09375 0.859375q1.484375 0.640625 2.65625 1.390625q-0.640625 -1.828125 -0.859375 -3.90625q-0.203125 -2.078125 0.328125 -3.671875q-1.28125 1.703125 -1.921875 4.578125q0.53125 0.21875 0.96875 0.21875zm-3.625 -1.171875l0 -0.109375q0 0.109375 0 0.109375l0 0zm53.853104 21.015625q-0.53125 2.34375 -2.984375 4.734375q-2.453125 2.40625 -4.59375 3.46875q1.1875 -2.015625 1.28125 -5.484375q0.109375 -3.46875 -0.734375 -5.609375q-1.5 1.609375 -4.4375 2.78125q-2.921875 1.171875 -5.0625 0.953125q1.703125 -1.171875 3.09375 -4.046875q1.390625 -2.875 1.5 -5.125q-0.96875 0.96875 -2.734375 1.5625q-1.75 0.578125 -3.140625 0.359375q1.28125 -0.3125 2.71875 -1.4375q1.4375 -1.125 2.1875 -2.296875q-2.03125 0.75 -5.078125 0.375q-3.03125 -0.375 -4.953125 -1.21875q2.03125 -0.546875 4.484375 -2.40625q2.453125 -1.859375 3.421875 -3.78125q-1.5 -0.21875 -3.640625 -1.28125q-2.125 -1.0625 -3.078125 -2.25q1.484375 -0.203125 3.453125 -1.59375q1.984375 -1.390625 2.828125 -2.5625q-1.8125 -1.390625 -4.796875 -2.390625q-2.984375 -1.015625 -5.21875 -0.59375q1.703125 -1.484375 4.734375 -2.4375q3.046875 -0.96875 5.28125 -0.546875q-1.0625 -0.859375 -2.9375 -1.21875q-1.859375 -0.375 -3.25 -0.0625q0.859375 -0.640625 2.296875 -1.015625q1.4375 -0.375 2.71875 -0.375q-2.125 -0.3125 -4.578125 -1.421875q-2.453125 -1.125 -3.734375 -2.515625q2.125 -0.109375 5.0 -1.328125q2.890625 -1.2343903 4.484375 -2.7343903q-0.84375 -1.28125 -3.09375 -2.453125q-2.234375 -1.171875 -3.828125 -1.375q1.703125 -2.140625 4.90625 -3.421875q-2.140625 0.328125 -4.53125 -0.15625q-2.40625 -0.484375 -4.0 -1.546875q2.34375 0.53125 5.375 0.15625q3.046875 -0.375 5.171875 -1.4375q0.21875 -1.171875 -0.265625 -2.71875q-0.46875 -1.546875 -1.109375 -2.5q1.0625 0.203125 2.5 1.109375q1.4375 0.90625 1.96875 1.875q-0.203125 -2.34375 0.859375 -5.546875q1.0625 -3.203125 2.765625 -4.90625q-0.3125 2.34375 0.75 5.59375q1.0625 3.25 2.875 4.859375q1.28125 -1.171875 2.5 -3.625q1.234375 -2.453125 1.234375 -4.265625q1.390625 1.171875 2.5625 3.625q1.171875 2.453125 1.28125 4.265625q0.859375 -1.390625 1.4375 -3.515625q0.59375 -2.140625 0.0625 -3.640625q1.0625 1.28125 1.484375 3.421875q0.4375 2.125 0 3.734375q0.53125 -1.078125 2.015625 -2.03125q1.5 -0.953125 2.6875 -1.171875q-0.75 0.953125 -1.234375 2.609375q-0.484375 1.65625 -0.375 2.828125q0.96875 0.96875 2.78125 1.765625q1.8125 0.796875 3.1875 0.796875q-0.953125 0.859375 -2.765625 1.765625q-1.8125 0.90625 -3.203125 0.6875q1.28125 1.0625 3.46875 1.765625q2.1875 0.6875 3.890625 0.359375q-1.28125 1.078125 -3.515625 1.71875q-2.234375 0.640625 -3.734375 0.421875q0.75 0.109375 1.8125 0.703125q1.0625 0.578125 1.5 1.21875q-0.75 0 -1.875 0.640625q-1.125 0.64064026 -1.546875 1.2812653q0.328125 0.640625 1.390625 1.765625q1.0625 1.109375 1.703125 1.328125q-0.21875 0.734375 -1.34375 1.8125q-1.109375 1.0625 -1.75 1.375q0.640625 0.546875 1.8125 0.875q1.171875 0.3125 2.03125 0.203125q-0.75 0.53125 -1.875 0.796875q-1.109375 0.265625 -1.96875 0.265625q0.640625 0.109375 1.65625 0.59375q1.015625 0.46875 1.4375 1.109375q-0.75 0.109375 -1.71875 0.59375q-0.953125 0.46875 -1.375 1.015625q1.0625 -0.109375 2.453125 0.484375q1.390625 0.578125 2.140625 1.21875q-1.078125 0 -2.46875 0.53125q-1.375 0.53125 -2.125 1.171875q1.921875 -0.75 4.484375 -0.21875q0.203125 -2.5625 0.3125 -5.328125q0.109375 -2.765625 0.046875 -4.953125q-0.046875 -2.1875 -0.359375 -3.15625q-0.328125 0 -0.53125 -0.109375q0.421875 -0.53125 2.34375 -1.4375q1.921875 -0.90626526 3.890625 -1.7031403q1.96875 -0.796875 2.609375 -0.796875q-0.53125 -0.53125 -1.59375 -0.953125q-1.0625 -0.4375 -1.8125 -0.328125q0.53125 -0.640625 1.59375 -1.015625q1.0625 -0.375 1.8125 -0.265625q-1.0625 -0.75 -2.765625 -1.4375q-1.703125 -0.6875 -2.984375 -0.484375q0.84375 -0.953125 2.65625 -1.4375q1.8125 -0.484375 3.09375 -0.375q-1.0625 -0.3125 -2.5625 -1.59375q-1.484375 -1.28125 -2.015625 -2.34375q1.171875 0 2.921875 -0.75q1.765625 -0.75 2.515625 -1.609375q-0.21875 -1.375 0.203125 -3.40625q0.4375 -2.03125 1.390625 -3.203125q-0.109375 1.5 0.578125 3.421875q0.703125 1.90625 1.765625 2.984375q-0.203125 -1.703125 0.640625 -4.046875q0.859375 -2.359375 2.03125 -3.53125q-0.21875 1.703125 0.640625 4.0625q0.859375 2.34375 2.140625 3.515625q-0.21875 -1.171875 0.09375 -2.71875q0.328125 -1.546875 0.96875 -2.515625q-0.328125 1.171875 0.046875 2.71875q0.375 1.546875 1.015625 2.515625q1.171875 -1.921875 1.375 -4.90625q0.21875 -2.984375 -0.3125 -5.234375q1.078125 2.03125 1.34375 4.96875q0.265625 2.921875 -0.265625 5.171875q0.203125 -0.96875 1.328125 -2.515625q1.125 -1.546875 1.96875 -1.96875q0.328125 0.953125 1.390625 2.5q1.0625 1.546875 2.03125 1.984375q0.640625 -0.75 2.015625 -1.21875q1.390625 -0.484375 2.359375 -0.484375q-0.640625 0.625 -1.1875 2.015625q-0.53125 1.390625 -0.53125 2.34375q1.171875 0 2.9375 0.90625q1.765625 0.90625 2.5 1.875q-1.171875 0.109375 -2.9375 0.96875q-1.75 0.84375 -2.5 1.796875q1.609375 1.078125 4.15625 1.296875q2.5625 0.203125 4.484375 -0.21875q-1.59375 1.0625 -4.15625 1.28125q-2.5625 0.203125 -4.484375 -0.21875q0.859375 1.390625 3.25 2.671875q2.40625 1.265625 4.0 1.265625q-0.84375 1.3906403 -3.25 2.6718903q-2.390625 1.28125 -4.0 1.390625q1.171875 1.390625 3.734375 2.34375q2.5625 0.953125 4.375 0.859375q-1.28125 1.28125 -3.796875 2.234375q-2.5 0.953125 -4.3125 0.953125q1.8125 1.28125 4.75 1.65625q2.9375 0.375 5.0625 -0.15625q-1.921875 1.171875 -4.796875 1.65625q-2.875 0.46875 -5.015625 -0.171875q1.71875 1.28125 4.640625 2.09375q2.9375 0.796875 5.0625 0.265625q-1.0625 0.953125 -2.765625 1.546875q-1.703125 0.578125 -3.40625 0.796875q2.453125 0.203125 5.0625 0.6875q2.609375 0.484375 3.359375 1.015625q-0.640625 -0.21875 -2.359375 -0.15625q-1.703125 0.046875 -3.734375 0.375q-2.015625 0.3125 -3.671875 0.6875q-1.65625 0.375 -2.1875 0.796875q2.34375 -0.203125 5.65625 0.921875q3.3125 1.109375 4.90625 2.8125q-2.34375 -0.3125 -5.65625 0.921875q-3.296875 1.21875 -4.90625 2.921875q1.71875 0.109375 4.171875 1.390625q2.453125 1.28125 3.40625 2.65625q-1.703125 0.21875 -4.109375 1.453125q-2.390625 1.21875 -3.46875 2.609375q-1.0625 1.8125 -1.171875 4.90625q-0.109375 3.09375 0.859375 5.015625q-1.921875 -0.96875 -3.625 -3.484375q-1.703125 -2.5 -2.140625 -4.515625q0.4375 1.8125 0.0625 4.265625q-0.375 2.453125 -1.546875 3.828125q0.421875 -1.8125 -0.0625 -4.21875q-0.46875 -2.390625 -1.4375 -3.984375q0.21875 0.75 -0.15625 3.140625q-0.375 2.40625 -1.015625 4.75q-0.640625 2.34375 -1.0625 2.984375q0.109375 -0.75 -0.265625 -3.15625q-0.375 -2.390625 -0.96875 -4.734375q-0.578125 -2.34375 -1.109375 -2.984375q-1.71875 1.484375 -2.953125 4.46875q-1.21875 3.0 -1.21875 5.234375q-1.0625 -0.96875 -1.859375 -2.5625q-0.796875 -1.59375 -1.328125 -3.40625q-0.96875 -1.8125 -3.046875 -3.515625q-2.078125 -1.71875 -3.890625 -2.46875q0.53125 1.609375 0.203125 4.375q-0.3125 2.78125 -1.265625 4.15625q-0.75 -1.484375 -2.828125 -3.296875q-2.078125 -1.8125 -3.6875 -2.34375q0.21875 1.375 -0.53125 3.40625q-0.75 2.03125 -1.703125 3.09375q-0.109375 -1.484375 -1.65625 -3.359375q-1.546875 -1.859375 -5.8125 -3.140625zm21.328125 -33.171875q-0.421875 -0.421875 -2.03125 -1.28125q-1.59375 -0.859375 -3.46875 -1.59375q-1.859375 -0.75 -2.8125 -1.078125q0.53125 0.75 1.375 2.625q0.859375 1.859375 1.71875 4.203125q1.390625 -0.3125 2.875 -1.171875q1.5 -0.859375 2.34375 -1.703125zm0 5.859375q-2.125 0.109375 -4.578125 -1.375q0.421875 1.375 0.84375 2.65625q2.03125 -1.171875 3.734375 -1.28125zm0 4.703125q-1.0625 -1.28125 -3.296875 -2.03125q0.3125 0.84375 0.53125 1.484375q1.703125 0.109375 2.765625 0.546875zm-12.46875 1.90625q1.703125 0.21875 3.9375 -0.734375q0.109375 -0.640625 0.21875 -1.28125q-1.171875 0.203125 -2.34375 0.75q-1.171875 0.53125 -1.8125 1.265625zm47.136353 14.40625q-1.28125 -0.21875 -3.09375 -1.5q-1.8125 -1.28125 -2.5625 -2.234375q1.28125 -0.21875 3.140625 -1.484375q1.875 -1.28125 2.515625 -2.359375q-1.703125 0 -3.84375 -0.953125q-2.125 -0.96875 -3.296875 -2.34375q1.59375 0.734375 3.9375 0.84375q2.34375 0.109375 3.953125 -0.640625q-0.109375 -2.34375 -1.5 -5.265625q-1.390625 -2.9375 -3.296875 -4.328125q3.515625 0.75 6.8125 3.625q-0.734375 -1.171875 -1.28125 -2.546875q-0.53125 -1.390625 -0.53125 -2.578125q0.859375 1.609375 2.9375 3.046875q2.078125 1.4375 3.890625 1.859375q-0.203125 -1.0625 -1.8125 -3.515625q-1.59375 -2.453125 -3.625 -4.90625l-0.421875 0.21875q0.109375 -0.21875 0.21875 -0.53125q-1.609375 -1.921875 -3.046875 -3.46875q-1.4375 -1.546875 -2.1875 -1.96875q0.75 0.203125 2.234375 1.4375q1.5 1.21875 3.09375 2.828125q0.109375 -1.609375 -0.3125 -3.515625q-0.421875 -1.921875 -1.171875 -3.0000153q-0.640625 -0.84375 -2.1875 -1.796875q-1.546875 -0.96875 -2.609375 -1.1875q0.53125 -0.84375 2.125 -1.796875q1.609375 -0.96875 2.671875 -1.078125q-1.0625 -0.421875 -2.78125 -1.859375q-1.703125 -1.453125 -2.125 -2.515625q1.0625 -0.109375 2.984375 -1.390625q1.921875 -1.28125 2.453125 -2.234375q-0.109375 -1.171875 0.53125 -2.875q0.640625 -1.71875 1.5 -2.453125q0.203125 1.0625 1.109375 2.671875q0.90625 1.59375 1.984375 2.125q0.84375 -1.171875 1.421875 -3.09375q0.59375 -1.921875 0.484375 -3.3125q0.96875 1.0625 1.546875 3.046875q0.59375 1.96875 0.375 3.359375q1.171875 -0.859375 2.5 -3.046875q1.34375 -2.1875 1.5625 -3.671875q1.28125 0.734375 2.5 2.984375q1.234375 2.234375 1.4375 3.734375q0 -1.609375 0.6875 -3.890625q0.703125 -2.296875 1.875 -3.359375q0 1.59375 0.6875 3.890625q0.703125 2.28125 1.875 3.359375q1.171875 -1.703125 1.484375 -4.421875q0.328125 -2.734375 -0.203125 -4.75q1.59375 2.765625 1.59375 6.5q0.859375 -2.453125 2.25 -3.9375q-0.109375 1.484375 0.625 3.5625q0.75 2.078125 1.921875 3.046875q0.21875 -1.078125 1.328125 -2.671875q1.125 -1.59375 2.09375 -2.03125q0.109375 1.078125 1.28125 2.625q1.171875 1.546875 2.125 2.078125q1.0625 -0.859375 2.453125 -2.875q1.390625 -2.03125 1.5 -3.421875q1.171875 0.75 2.5 2.828125q1.34375 2.078125 1.546875 3.46875q1.28125 -1.703125 2.234375 -4.375q0.96875 -2.671875 0.640625 -4.796875q1.078125 1.8125 1.71875 4.59375q0.640625 2.765625 0.203125 4.78125q2.25 0.4375 5.171875 -0.578125q2.9375 -1.015625 4.640625 -2.515625q-1.375 1.921875 -4.0 3.421875q-2.609375 1.484375 -4.953125 1.703125q1.5 -0.21875 3.578125 0.375q2.078125 0.59375 3.25 1.546875q-1.5 -0.328125 -3.53125 0.3125q-2.015625 0.640625 -3.296875 1.5q0.859375 1.171875 2.9375 2.515625q2.078125 1.328125 3.46875 1.53125q-0.859375 1.171875 -2.9375 2.40625q-2.078125 1.21875 -3.46875 1.546875q1.5 1.0625153 2.765625 3.4687653q1.28125 2.390625 1.5 4.203125q-1.390625 -1.0625 -4.171875 -1.4375q-2.765625 -0.375 -4.46875 0.0625q0.328125 2.234375 1.96875 4.6875q1.65625 2.453125 3.578125 3.625q-1.703125 -0.640625 -3.6875 -2.125q-1.96875 -1.5 -3.140625 -3.203125q0.328125 0.84375 0.484375 1.75q0.15625 0.90625 0.046875 1.546875q-0.640625 -0.640625 -2.03125 -1.21875q-1.375 -0.59375 -2.34375 -0.59375q-0.203125 1.171875 0.109375 3.09375q0.328125 1.921875 1.078125 2.78125q-1.1875 0.109375 -3.0 -0.46875q-1.8125 -0.59375 -2.65625 -1.453125q-0.53125 1.390625 -0.328125 3.515625l0.328125 -0.3125q-0.109375 0.203125 -0.328125 0.53125q0.109375 1.0625 0.4375 1.59375q-0.640625 0.21875 -1.8125 0.109375l-0.109375 0q0.84375 0.640625 1.484375 1.546875q0.640625 0.90625 0.859375 1.4375q0.953125 -0.75 2.078125 -2.453125q1.125 -1.703125 1.21875 -2.875q0.96875 0.640625 2.140625 2.40625q1.171875 1.75 1.28125 2.921875q0.21875 -1.0625 1.28125 -2.71875q1.0625 -1.65625 2.03125 -2.1875q0.3125 1.0625 1.375 2.71875q1.078125 1.65625 2.03125 2.1875q1.390625 0.109375 3.25 -0.53125q1.875 -0.640625 2.9375 -1.59375q-0.421875 1.375 -1.546875 2.984375q-1.125 1.59375 -2.40625 2.234375q0.75 0.75 2.296875 1.34375q1.546875 0.578125 2.609375 0.46875q-1.28125 1.171875 -3.40625 1.703125q1.921875 -0.09375 3.9375 0.390625q2.03125 0.46875 3.3125 1.53125q-1.921875 -0.421875 -4.53125 0.015625q-2.609375 0.421875 -4.21875 1.6875q1.078125 1.609375 3.421875 3.0q2.34375 1.375 4.265625 1.8125q-1.703125 0.953125 -4.484375 1.390625q-2.765625 0.421875 -4.578125 -0.21875q-0.96875 0.84375 -1.9375 2.8125q-0.953125 1.984375 -0.953125 3.375q-0.953125 -0.640625 -1.8125 -2.09375q-0.84375 -1.4375 -1.0625 -2.8125q0 1.375 -0.328125 3.71875q-0.3125 2.359375 -0.84375 4.859375q-0.53125 2.515625 -1.125 4.484375q-0.578125 1.96875 -1.109375 2.71875q0.203125 -0.96875 -0.015625 -3.375q-0.203125 -2.390625 -0.734375 -5.265625q-0.53125 -2.875 -1.171875 -5.28125q-0.640625 -2.390625 -1.28125 -3.140625q-0.96875 0.953125 -1.828125 2.875q-0.84375 1.921875 -0.84375 3.3125q-1.0625 -0.96875 -1.921875 -2.890625q-0.84375 -1.921875 -0.84375 -3.296875q-1.390625 1.375 -2.25 4.09375q-0.84375 2.734375 -0.75 4.75q-1.265625 -1.484375 -2.28125 -4.203125q-1.015625 -2.71875 -0.703125 -4.640625q-1.28125 1.171875 -2.671875 3.625q-1.375 2.453125 -1.375 4.15625q-1.390625 -1.0625 -2.671875 -3.578125q-1.28125 -2.5 -1.375 -4.203125q-1.171875 1.0625 -2.515625 3.25q-1.328125 2.1875 -1.546875 3.78125q-1.28125 -0.953125 -2.609375 -3.203125q-1.328125 -2.234375 -1.328125 -3.828125q-1.171875 1.8125 -1.546875 4.6875q-0.375 2.875 0.265625 5.015625q-0.96875 -1.5 -1.453125 -3.796875q-0.46875 -2.28125 -0.25 -4.3125q-0.546875 1.8125 -1.5625 3.671875q-1.0 1.875 -2.078125 2.84375q0.109375 -1.828125 -1.5 -5.140625q-1.59375 -3.296875 -4.359375 -8.625zm7.25 -31.46875q-0.203125 1.390625 -1.4375 3.0q-1.21875 1.59375 -2.609375 2.65625q2.125 2.140625 3.984375 4.375q1.875 2.234375 2.203125 3.203125q0.109375 -0.96875 -0.484375 -2.25q-0.59375 -1.28125 -1.234375 -2.015625q0.96875 0.203125 2.140625 0.90625q1.171875 0.6875 1.8125 1.4375q-0.421875 -0.640625 -0.53125 -1.921875q-0.109375 -1.28125 0 -2.453125q-1.28125 -0.953125 -2.453125 -3.1875q-1.171875 -2.25 -1.390625 -3.75zm8.109375 0q-1.0625 0.75 -2.140625 2.40625q-1.0625 1.65625 -1.59375 3.25q0.953125 0.640625 2.71875 0.96875q1.765625 0.3125 2.71875 0q-0.75 -0.640625 -1.390625 -1.8125q-0.640625 -1.1875 -0.640625 -2.140625q0.4375 0.75 1.390625 1.5q0.4375 -0.75 0.96875 -1.390625q-0.109375 -0.4375 -0.21875 -0.859375q-0.3125 0.75 -0.3125 1.28125q-0.546875 -0.421875 -1.03125 -1.4375q-0.46875 -1.015625 -0.46875 -1.765625zm2.984375 0l0 0l0 0l0 0zm0.328125 5.234375q-0.546875 -0.640625 -0.96875 -1.8125q-0.640625 0.421875 -1.0625 0.84375q1.0625 0.75 2.03125 0.96875zm13.75 11.734375q-0.109375 0.734375 0.21875 1.8125q0.53125 -0.21875 1.171875 -0.4375q0.203125 -0.421875 0.421875 -0.734375q-1.28125 -0.21875 -1.8125 -0.640625zm30.50534 14.5q-1.28125 -0.21875 -3.09375 -1.5q-1.8125 -1.28125 -2.5625 -2.234375q1.28125 -0.21875 3.140625 -1.484375q1.875 -1.28125 2.515625 -2.359375q-1.703125 0 -3.84375 -0.953125q-2.125 -0.96875 -3.296875 -2.34375q1.59375 0.734375 3.9375 0.84375q2.34375 0.109375 3.953125 -0.640625q-0.109375 -2.34375 -1.5 -5.265625q-1.390625 -2.9375 -3.296875 -4.328125q3.515625 0.75 6.8125 3.625q-0.734375 -1.171875 -1.28125 -2.546875q-0.53125 -1.390625 -0.53125 -2.578125q0.859375 1.609375 2.9375 3.046875q2.078125 1.4375 3.890625 1.859375q-0.203125 -1.0625 -1.8125 -3.515625q-1.59375 -2.453125 -3.625 -4.90625l-0.421875 0.21875q0.109375 -0.21875 0.21875 -0.53125q-1.609375 -1.921875 -3.046875 -3.46875q-1.4375 -1.546875 -2.1875 -1.96875q0.75 0.203125 2.234375 1.4375q1.5 1.21875 3.09375 2.828125q0.109375 -1.609375 -0.3125 -3.515625q-0.421875 -1.921875 -1.171875 -3.0000153q-0.640625 -0.84375 -2.1875 -1.796875q-1.546875 -0.96875 -2.609375 -1.1875q0.53125 -0.84375 2.125 -1.796875q1.609375 -0.96875 2.671875 -1.078125q-1.0625 -0.421875 -2.78125 -1.859375q-1.703125 -1.453125 -2.125 -2.515625q1.0625 -0.109375 2.984375 -1.390625q1.921875 -1.28125 2.453125 -2.234375q-0.109375 -1.171875 0.53125 -2.875q0.640625 -1.71875 1.5 -2.453125q0.203125 1.0625 1.109375 2.671875q0.90625 1.59375 1.984375 2.125q0.84375 -1.171875 1.421875 -3.09375q0.59375 -1.921875 0.484375 -3.3125q0.96875 1.0625 1.546875 3.046875q0.59375 1.96875 0.375 3.359375q1.171875 -0.859375 2.5 -3.046875q1.34375 -2.1875 1.5625 -3.671875q1.28125 0.734375 2.5 2.984375q1.234375 2.234375 1.4375 3.734375q0 -1.609375 0.6875 -3.890625q0.703125 -2.296875 1.875 -3.359375q0 1.59375 0.6875 3.890625q0.703125 2.28125 1.875 3.359375q1.171875 -1.703125 1.484375 -4.421875q0.328125 -2.734375 -0.203125 -4.75q1.59375 2.765625 1.59375 6.5q0.859375 -2.453125 2.25 -3.9375q-0.109375 1.484375 0.625 3.5625q0.75 2.078125 1.921875 3.046875q0.21875 -1.078125 1.328125 -2.671875q1.125 -1.59375 2.09375 -2.03125q0.109375 1.078125 1.28125 2.625q1.171875 1.546875 2.125 2.078125q1.0625 -0.859375 2.453125 -2.875q1.390625 -2.03125 1.5 -3.421875q1.171875 0.75 2.5 2.828125q1.34375 2.078125 1.546875 3.46875q1.28125 -1.703125 2.234375 -4.375q0.96875 -2.671875 0.640625 -4.796875q1.078125 1.8125 1.71875 4.59375q0.640625 2.765625 0.203125 4.78125q2.25 0.4375 5.171875 -0.578125q2.9375 -1.015625 4.640625 -2.515625q-1.375 1.921875 -4.0 3.421875q-2.609375 1.484375 -4.953125 1.703125q1.5 -0.21875 3.578125 0.375q2.078125 0.59375 3.25 1.546875q-1.5 -0.328125 -3.53125 0.3125q-2.015625 0.640625 -3.296875 1.5q0.859375 1.171875 2.9375 2.515625q2.078125 1.328125 3.46875 1.53125q-0.859375 1.171875 -2.9375 2.40625q-2.078125 1.21875 -3.46875 1.546875q1.5 1.0625153 2.765625 3.4687653q1.28125 2.390625 1.5 4.203125q-1.390625 -1.0625 -4.171875 -1.4375q-2.765625 -0.375 -4.46875 0.0625q0.328125 2.234375 1.96875 4.6875q1.65625 2.453125 3.578125 3.625q-1.703125 -0.640625 -3.6875 -2.125q-1.96875 -1.5 -3.140625 -3.203125q0.328125 0.84375 0.484375 1.75q0.15625 0.90625 0.046875 1.546875q-0.640625 -0.640625 -2.03125 -1.21875q-1.375 -0.59375 -2.34375 -0.59375q-0.203125 1.171875 0.109375 3.09375q0.328125 1.921875 1.078125 2.78125q-1.1875 0.109375 -3.0 -0.46875q-1.8125 -0.59375 -2.65625 -1.453125q-0.53125 1.390625 -0.328125 3.515625l0.328125 -0.3125q-0.109375 0.203125 -0.328125 0.53125q0.109375 1.0625 0.4375 1.59375q-0.640625 0.21875 -1.8125 0.109375l-0.109375 0q0.84375 0.640625 1.484375 1.546875q0.640625 0.90625 0.859375 1.4375q0.953125 -0.75 2.078125 -2.453125q1.125 -1.703125 1.21875 -2.875q0.96875 0.640625 2.140625 2.40625q1.171875 1.75 1.28125 2.921875q0.21875 -1.0625 1.28125 -2.71875q1.0625 -1.65625 2.03125 -2.1875q0.3125 1.0625 1.375 2.71875q1.078125 1.65625 2.03125 2.1875q1.390625 0.109375 3.25 -0.53125q1.875 -0.640625 2.9375 -1.59375q-0.421875 1.375 -1.546875 2.984375q-1.125 1.59375 -2.40625 2.234375q0.75 0.75 2.296875 1.34375q1.546875 0.578125 2.609375 0.46875q-1.28125 1.171875 -3.40625 1.703125q1.921875 -0.09375 3.9375 0.390625q2.03125 0.46875 3.3125 1.53125q-1.921875 -0.421875 -4.53125 0.015625q-2.609375 0.421875 -4.21875 1.6875q1.078125 1.609375 3.421875 3.0q2.34375 1.375 4.265625 1.8125q-1.703125 0.953125 -4.484375 1.390625q-2.765625 0.421875 -4.578125 -0.21875q-0.96875 0.84375 -1.9375 2.8125q-0.953125 1.984375 -0.953125 3.375q-0.953125 -0.640625 -1.8125 -2.09375q-0.84375 -1.4375 -1.0625 -2.8125q0 1.375 -0.328125 3.71875q-0.3125 2.359375 -0.84375 4.859375q-0.53125 2.515625 -1.125 4.484375q-0.578125 1.96875 -1.109375 2.71875q0.203125 -0.96875 -0.015625 -3.375q-0.203125 -2.390625 -0.734375 -5.265625q-0.53125 -2.875 -1.171875 -5.28125q-0.640625 -2.390625 -1.28125 -3.140625q-0.96875 0.953125 -1.828125 2.875q-0.84375 1.921875 -0.84375 3.3125q-1.0625 -0.96875 -1.921875 -2.890625q-0.84375 -1.921875 -0.84375 -3.296875q-1.390625 1.375 -2.25 4.09375q-0.84375 2.734375 -0.75 4.75q-1.265625 -1.484375 -2.28125 -4.203125q-1.015625 -2.71875 -0.703125 -4.640625q-1.28125 1.171875 -2.671875 3.625q-1.375 2.453125 -1.375 4.15625q-1.390625 -1.0625 -2.671875 -3.578125q-1.28125 -2.5 -1.375 -4.203125q-1.171875 1.0625 -2.515625 3.25q-1.328125 2.1875 -1.546875 3.78125q-1.28125 -0.953125 -2.609375 -3.203125q-1.328125 -2.234375 -1.328125 -3.828125q-1.171875 1.8125 -1.546875 4.6875q-0.375 2.875 0.265625 5.015625q-0.96875 -1.5 -1.453125 -3.796875q-0.46875 -2.28125 -0.25 -4.3125q-0.546875 1.8125 -1.5625 3.671875q-1.0 1.875 -2.078125 2.84375q0.109375 -1.828125 -1.5 -5.140625q-1.59375 -3.296875 -4.359375 -8.625zm7.25 -31.46875q-0.203125 1.390625 -1.4375 3.0q-1.21875 1.59375 -2.609375 2.65625q2.125 2.140625 3.984375 4.375q1.875 2.234375 2.203125 3.203125q0.109375 -0.96875 -0.484375 -2.25q-0.59375 -1.28125 -1.234375 -2.015625q0.96875 0.203125 2.140625 0.90625q1.171875 0.6875 1.8125 1.4375q-0.421875 -0.640625 -0.53125 -1.921875q-0.109375 -1.28125 0 -2.453125q-1.28125 -0.953125 -2.453125 -3.1875q-1.171875 -2.25 -1.390625 -3.75zm8.109375 0q-1.0625 0.75 -2.140625 2.40625q-1.0625 1.65625 -1.59375 3.25q0.953125 0.640625 2.71875 0.96875q1.765625 0.3125 2.71875 0q-0.75 -0.640625 -1.390625 -1.8125q-0.640625 -1.1875 -0.640625 -2.140625q0.4375 0.75 1.390625 1.5q0.4375 -0.75 0.96875 -1.390625q-0.109375 -0.4375 -0.21875 -0.859375q-0.3125 0.75 -0.3125 1.28125q-0.546875 -0.421875 -1.03125 -1.4375q-0.46875 -1.015625 -0.46875 -1.765625zm2.984375 0l0 0l0 0l0 0zm0.328125 5.234375q-0.546875 -0.640625 -0.96875 -1.8125q-0.640625 0.421875 -1.0625 0.84375q1.0625 0.75 2.03125 0.96875zm13.75 11.734375q-0.109375 0.734375 0.21875 1.8125q0.53125 -0.21875 1.171875 -0.4375q0.203125 -0.421875 0.421875 -0.734375q-1.28125 -0.21875 -1.8125 -0.640625zm40.310974 35.9375q-1.0625 -1.59375 -3.203125 -3.140625q-2.125 -1.546875 -3.9375 -1.984375q1.8125 -0.3125 4.421875 0.0625q2.625 0.375 4.109375 1.546875q-0.953125 -0.640625 -2.125 -2.515625q-1.171875 -1.859375 -1.390625 -3.03125q1.171875 0.109375 3.359375 -0.265625q2.1875 -0.375 3.140625 -1.125q-2.234375 -0.3125 -4.75 -2.140625q-2.5 -1.8125 -3.453125 -3.828125q1.921875 1.0625 4.84375 1.546875q2.9375 0.46875 5.078125 0.15625q-1.1875 -1.59375 -3.484375 -2.984375q-2.28125 -1.390625 -4.3125 -1.390625q1.8125 -0.75 4.53125 -0.796875q2.71875 -0.046875 4.4375 0.90625q-1.078125 -0.859375 -3.3125 -1.171875q-2.234375 -0.328125 -3.40625 0q0.3125 -1.171875 1.53125 -2.984375q1.234375 -1.8125 2.296875 -2.5625q-1.375 1.0625 -3.671875 1.546875q-2.296875 0.484375 -3.890625 0.046875q1.703125 -0.3125 3.5625 -1.59375q1.875 -1.28125 2.828125 -2.78125q-2.015625 1.078125 -5.28125 1.5q-3.25 0.421875 -5.484375 -0.3125q2.234375 -0.859375 4.796875 -2.875q2.5625 -2.03125 3.515625 -4.171875q-1.28125 0.640625 -3.46875 0.640625q-2.1875 0 -3.453125 -0.421875q1.265625 -0.53125 2.859375 -2.03125q1.609375 -1.5 2.046875 -2.875q-1.1875 -0.53125 -3.15625 -0.640625q-1.96875 -0.109375 -3.25 0.3125q0.53125 -1.171875 1.8125 -2.65625q1.28125 -1.5 2.453125 -2.140625q-2.140625 -0.953125 -5.5 -0.578125q-3.359375 0.359375 -5.375 1.53125q0.953125 -1.90625 3.03125 -3.875q2.078125 -1.984375 4.109375 -2.9375q-1.171875 0.3125 -2.609375 0.265625q-1.4375 -0.0625 -2.40625 -0.375q1.28125 -0.4375 2.609375 -1.765625q1.34375 -1.328125 1.765625 -2.5q-1.28125 -0.85939026 -3.84375 -0.96876526q-2.546875 -0.109375 -4.046875 0.4375q0.53125 -1.5 2.078125 -3.515625q1.546875 -2.03125 3.046875 -2.5625q-1.609375 0.734375 -4.328125 0.84375q-2.71875 0.109375 -4.3125 -0.640625q1.703125 -0.75 3.625 -2.5625q1.921875 -1.8125 2.5625 -3.515625q-1.28125 -0.75 -2.453125 -2.234375q-1.171875 -1.5 -1.390625 -2.890625q0.859375 1.078125 2.5625 1.9375q1.703125 0.84375 3.09375 0.953125q-0.109375 -1.171875 0.6875 -2.828125q0.796875 -1.65625 1.65625 -2.515625q-0.109375 1.1875 0.640625 2.84375q0.75 1.640625 1.59375 2.5q0.859375 -0.640625 1.5 -2.078125q0.640625 -1.453125 0.640625 -2.515625q0.75 0.53125 1.328125 1.8125q0.59375 1.28125 0.6875 2.25q0.109375 -1.609375 1.015625 -3.578125q0.90625 -1.96875 1.984375 -2.9375q0 1.609375 0.90625 3.796875q0.90625 2.171875 1.96875 3.25q1.59375 -1.28125 2.546875 -3.84375q0.96875 -2.5625 0.96875 -4.484375q0.96875 1.71875 1.328125 4.390625q0.375 2.65625 -0.15625 4.578125q1.609375 0.421875 3.890625 -0.046875q2.296875 -0.484375 3.6875 -1.453125q-0.96875 1.390625 -2.734375 2.828125q-1.75 1.4375 -3.34375 1.859375q1.171875 0.859375 3.71875 1.296875q2.5625 0.421875 4.171875 0.09375q-0.421875 1.5 -2.140625 3.46875q-1.703125 1.96875 -3.09375 2.71875q0.4375 0.53125 1.875 1.28125q1.4375 0.75 2.1875 0.859375q0 0.640625 -0.59375 2.1875153q-0.578125 1.546875 -1.109375 1.96875q0.84375 -0.328125 2.125 -0.328125q-0.109375 -0.203125 -0.21875 -0.53125q1.390625 0.328125 3.578125 0.015625q2.1875 -0.328125 3.359375 -1.078125q-1.0625 -0.21875 -2.296875 -1.3281403q-1.21875 -1.125 -1.640625 -2.1875q0.953125 0.53125 2.609375 0.53125q1.65625 0 2.609375 -0.53125q0.109375 -0.75 -0.53125 -2.453125q-0.640625 -1.703125 -1.0625 -2.25q0.421875 -0.53125 1.96875 -1.484375q1.546875 -0.96875 2.296875 -0.96875q-0.53125 -1.703125 -2.078125 -3.71875q-1.546875 -2.03125 -3.15625 -2.78125q1.703125 -0.3125 4.265625 0.0625q2.5625 0.359375 3.953125 1.4375q-0.421875 -1.5 -0.15625 -3.46875q0.265625 -1.984375 0.90625 -3.25q-0.328125 1.375 0.09375 3.359375q0.4375 1.96875 1.28125 3.25q-0.421875 -1.8125 -0.21875 -4.3125q0.21875 -2.515625 1.296875 -4.125q-0.546875 1.828125 -0.28125 4.328125q0.28125 2.5 1.34375 4.109375q1.171875 -1.28125 2.015625 -3.671875q0.859375 -2.40625 0.96875 -4.125q1.0625 1.28125 1.96875 3.6875q0.90625 2.40625 0.90625 4.109375q0 -2.140625 1.171875 -5.171875q1.171875 -3.046875 2.890625 -4.4375q0.109375 2.140625 1.328125 5.078125q1.234375 2.921875 2.71875 4.53125q1.0625 -0.109375 2.609375 0.484375q1.546875 0.578125 2.40625 1.328125q-1.0625 0.109375 -2.515625 1.015625q-1.4375 0.90625 -1.96875 1.859375q2.03125 0.328125 4.3125 2.03125q2.296875 1.703125 3.15625 3.515625q-1.59375 -1.28125 -4.375 -1.75q-2.765625 -0.484375 -4.796875 0.046875q0.859375 1.703125 2.828125 3.6875q1.96875 1.96875 3.78125 2.390625q-1.8125 0.64064026 -4.59375 0.53126526q-2.765625 -0.109375 -4.359375 -1.0625153q0.640625 1.8125153 2.5625 4.1093903q1.921875 2.28125 3.734375 2.921875q-1.8125 0.859375 -4.75 0.96875q-2.9375 0.109375 -4.75 -0.53125q0.421875 1.703125 2.234375 3.9375q1.8125 2.234375 3.53125 2.875q-1.609375 0.859375 -4.4375 1.03125q-2.828125 0.15625 -4.53125 -0.390625q1.390625 1.8125 4.0 3.203125q2.609375 1.390625 4.859375 1.703125q-1.5 0.328125 -3.421875 -0.09375q-1.90625 -0.4375 -3.625 -1.1875q2.890625 2.5625 3.84375 5.234375q-1.8125 -0.640625 -4.75 -0.640625q-2.921875 0 -4.734375 0.75q1.171875 2.015625 3.890625 3.5625q2.71875 1.546875 5.0625 1.984375q-2.234375 0.421875 -5.28125 -0.421875q-3.046875 -0.859375 -4.859375 -2.359375q0.640625 1.390625 2.34375 2.78125q1.71875 1.375 3.203125 1.703125q-1.484375 0.3125 -3.625 0.109375q-2.125 -0.21875 -3.40625 -1.0625q0.640625 2.015625 2.921875 4.203125q2.296875 2.1875 4.21875 3.046875q-1.921875 0.953125 -5.125 0.796875q-3.1875 -0.15625 -5.109375 -1.015625q0.953125 1.8125 3.296875 3.40625q2.359375 1.609375 4.375 1.921875q-1.703125 0.53125 -4.109375 0.15625q-2.390625 -0.359375 -4.09375 -1.328125q1.171875 0.96875 2.234375 2.5625q1.0625 1.59375 1.390625 2.78125q-1.390625 -0.546875 -3.734375 -0.28125q-2.34375 0.28125 -3.734375 0.921875q1.28125 0.53125 2.5625 2.015625q1.28125 1.5 1.8125 2.671875q-1.171875 -0.421875 -3.15625 -0.421875q-1.96875 0 -3.25 0.53125q0.21875 1.28125 1.4375 3.359375q1.234375 2.078125 2.40625 2.828125q-1.171875 0.734375 -3.578125 0.890625q-2.390625 0.171875 -3.671875 -0.25q-0.96875 1.703125 -1.34375 4.203125q-0.359375 2.515625 0.171875 4.328125q-1.390625 -1.28125 -2.25 -3.6875q-0.84375 -2.390625 -0.84375 -4.3125q-1.390625 1.59375 -2.1875 4.421875q-0.796875 2.828125 -0.375 4.859375q-1.171875 -1.390625 -1.875 -3.75q-0.6875 -2.34375 -0.6875 -4.359375q-0.203125 1.8125 -1.21875 3.828125q-1.015625 2.03125 -2.1875 3.0q-0.109375 -1.8125 -1.078125 -4.375q-0.953125 -2.5625 -2.34375 -3.625q0 1.0625 -0.375 2.5q-0.359375 1.4375 -1.109375 2.1875q0.109375 -1.0625 -0.328125 -3.09375q-0.421875 -2.03125 -1.28125 -6.078125zm21.125 -46.921875q-1.0625 -0.546875 -2.34375 -1.921875q-0.75 0.734375 -1.28125 1.484375q2.234375 -0.203125 3.625 0.4375z" fill-rule="nonzero"/><path fill="#595959" d="m544.60626 248.23082l0 17.062515q0 3.578125 2.390625 5.5q2.390625 1.90625 6.59375 1.90625q4.203125 0 5.9375 -1.21875q1.75 -1.21875 3.3125 -4.375q1.578125 -3.15625 4.96875 -3.15625l23.03125 0q1.640625 0 2.8125 1.1875q1.1875 1.171875 1.1875 2.828125q0 10.65625 -9.953125 19.375q-4.953125 4.265625 -13.03125 6.875q-8.0625 2.59375 -18.90625 2.59375q-10.828125 0 -19.90625 -3.390625q-9.0625 -3.390625 -14.8125 -11.21875q-5.734375 -7.828125 -5.734375 -19.140625l0 -12.593765q0 -11.296875 5.765625 -19.21875q10.734375 -14.53125 35.5625 -14.53125q9.96875 0 18.03125 2.59375q8.078125 2.59375 13.03125 6.875q9.953125 8.703125 9.953125 19.375q0 1.65625 -1.1875 2.828125q-1.171875 1.171875 -2.8125 1.171875l-23.03125 0q-3.390625 0 -4.96875 -3.140625q-1.5625 -3.15625 -3.3125 -4.375q-1.734375 -1.21875 -5.9375 -1.21875q-4.203125 0 -6.59375 1.921875q-2.390625 1.90625 -2.390625 5.484375zm81.98602 47.51564l-20.15625 0q-1.65625 0 -2.828125 -1.171875q-1.171875 -1.1875 -1.171875 -2.296875q0 -1.109375 0.171875 -1.671875l23.265625 -68.14064q1.265625 -4.6875 6.375 -4.6875l29.640625 0q5.109375 0 6.390625 4.6875l23.25 68.14064q0.171875 0.5625 0.171875 1.671875q0 1.109375 -1.171875 2.296875q-1.171875 1.171875 -2.828125 1.171875l-20.15625 0q-4.546875 0 -6.34375 -4.703125l-2.296875 -6.390625l-23.671875 0l-2.296875 6.390625q-1.796875 4.703125 -6.34375 4.703125zm25.734375 -35.203125l-5.25 -15.406265l-5.265625 15.406265l10.515625 0zm51.611023 -42.76564l73.59375 0q1.859375 0 3.1875 1.34375q1.34375 1.328125 1.34375 3.1875l0 17.171875q0 1.859375 -1.34375 3.203125q-1.328125 1.328125 -3.1875 1.328125l-21.28125 0l0 47.20314q0 1.859375 -1.34375 3.203125q-1.328125 1.328125 -3.1875 1.328125l-21.96875 0q-1.859375 0 -3.203125 -1.328125q-1.328125 -1.34375 -1.328125 -3.203125l0 -47.20314l-21.28125 0q-1.859375 0 -3.203125 -1.328125q-1.328125 -1.34375 -1.328125 -3.203125l0 -17.171875q0 -1.859375 1.328125 -3.1875q1.34375 -1.34375 3.203125 -1.34375z" fill-rule="nonzero"/></g></svg>